%TF.GenerationSoftware,KiCad,Pcbnew,(5.1.9-0-10_14)*%
%TF.CreationDate,2021-03-07T22:41:29+09:00*%
%TF.ProjectId,jade_hardware,6a616465-5f68-4617-9264-776172652e6b,A*%
%TF.SameCoordinates,Original*%
%TF.FileFunction,Paste,Top*%
%TF.FilePolarity,Positive*%
%FSLAX46Y46*%
G04 Gerber Fmt 4.6, Leading zero omitted, Abs format (unit mm)*
G04 Created by KiCad (PCBNEW (5.1.9-0-10_14)) date 2021-03-07 22:41:29*
%MOMM*%
%LPD*%
G01*
G04 APERTURE LIST*
%ADD10O,1.998980X2.748280*%
%ADD11R,0.900000X0.800000*%
%ADD12R,0.800000X0.900000*%
%ADD13R,1.200000X0.900000*%
%ADD14R,0.900000X1.200000*%
G04 APERTURE END LIST*
D10*
%TO.C,U1*%
X117932180Y-157166880D03*
X120472180Y-157166880D03*
X123012180Y-157166880D03*
X125552180Y-157166880D03*
X128092180Y-157166880D03*
X130632180Y-157166880D03*
X133172180Y-157166880D03*
X133172180Y-141002320D03*
X130632180Y-141002320D03*
X128092180Y-141002320D03*
X125552180Y-141002320D03*
X123012180Y-141002320D03*
X120472180Y-141002320D03*
X117932180Y-141002320D03*
%TD*%
%TO.C,U2*%
G36*
G01*
X138245000Y-121700000D02*
X137945000Y-121700000D01*
G75*
G02*
X137795000Y-121550000I0J150000D01*
G01*
X137795000Y-120200000D01*
G75*
G02*
X137945000Y-120050000I150000J0D01*
G01*
X138245000Y-120050000D01*
G75*
G02*
X138395000Y-120200000I0J-150000D01*
G01*
X138395000Y-121550000D01*
G75*
G02*
X138245000Y-121700000I-150000J0D01*
G01*
G37*
G36*
G01*
X139515000Y-121700000D02*
X139215000Y-121700000D01*
G75*
G02*
X139065000Y-121550000I0J150000D01*
G01*
X139065000Y-120200000D01*
G75*
G02*
X139215000Y-120050000I150000J0D01*
G01*
X139515000Y-120050000D01*
G75*
G02*
X139665000Y-120200000I0J-150000D01*
G01*
X139665000Y-121550000D01*
G75*
G02*
X139515000Y-121700000I-150000J0D01*
G01*
G37*
G36*
G01*
X140785000Y-121700000D02*
X140485000Y-121700000D01*
G75*
G02*
X140335000Y-121550000I0J150000D01*
G01*
X140335000Y-120200000D01*
G75*
G02*
X140485000Y-120050000I150000J0D01*
G01*
X140785000Y-120050000D01*
G75*
G02*
X140935000Y-120200000I0J-150000D01*
G01*
X140935000Y-121550000D01*
G75*
G02*
X140785000Y-121700000I-150000J0D01*
G01*
G37*
G36*
G01*
X142055000Y-121700000D02*
X141755000Y-121700000D01*
G75*
G02*
X141605000Y-121550000I0J150000D01*
G01*
X141605000Y-120200000D01*
G75*
G02*
X141755000Y-120050000I150000J0D01*
G01*
X142055000Y-120050000D01*
G75*
G02*
X142205000Y-120200000I0J-150000D01*
G01*
X142205000Y-121550000D01*
G75*
G02*
X142055000Y-121700000I-150000J0D01*
G01*
G37*
G36*
G01*
X142055000Y-126950000D02*
X141755000Y-126950000D01*
G75*
G02*
X141605000Y-126800000I0J150000D01*
G01*
X141605000Y-125450000D01*
G75*
G02*
X141755000Y-125300000I150000J0D01*
G01*
X142055000Y-125300000D01*
G75*
G02*
X142205000Y-125450000I0J-150000D01*
G01*
X142205000Y-126800000D01*
G75*
G02*
X142055000Y-126950000I-150000J0D01*
G01*
G37*
G36*
G01*
X140785000Y-126950000D02*
X140485000Y-126950000D01*
G75*
G02*
X140335000Y-126800000I0J150000D01*
G01*
X140335000Y-125450000D01*
G75*
G02*
X140485000Y-125300000I150000J0D01*
G01*
X140785000Y-125300000D01*
G75*
G02*
X140935000Y-125450000I0J-150000D01*
G01*
X140935000Y-126800000D01*
G75*
G02*
X140785000Y-126950000I-150000J0D01*
G01*
G37*
G36*
G01*
X139515000Y-126950000D02*
X139215000Y-126950000D01*
G75*
G02*
X139065000Y-126800000I0J150000D01*
G01*
X139065000Y-125450000D01*
G75*
G02*
X139215000Y-125300000I150000J0D01*
G01*
X139515000Y-125300000D01*
G75*
G02*
X139665000Y-125450000I0J-150000D01*
G01*
X139665000Y-126800000D01*
G75*
G02*
X139515000Y-126950000I-150000J0D01*
G01*
G37*
G36*
G01*
X138245000Y-126950000D02*
X137945000Y-126950000D01*
G75*
G02*
X137795000Y-126800000I0J150000D01*
G01*
X137795000Y-125450000D01*
G75*
G02*
X137945000Y-125300000I150000J0D01*
G01*
X138245000Y-125300000D01*
G75*
G02*
X138395000Y-125450000I0J-150000D01*
G01*
X138395000Y-126800000D01*
G75*
G02*
X138245000Y-126950000I-150000J0D01*
G01*
G37*
%TD*%
%TO.C,R16*%
G36*
G01*
X134513500Y-129777500D02*
X134513500Y-129302500D01*
G75*
G02*
X134751000Y-129065000I237500J0D01*
G01*
X135251000Y-129065000D01*
G75*
G02*
X135488500Y-129302500I0J-237500D01*
G01*
X135488500Y-129777500D01*
G75*
G02*
X135251000Y-130015000I-237500J0D01*
G01*
X134751000Y-130015000D01*
G75*
G02*
X134513500Y-129777500I0J237500D01*
G01*
G37*
G36*
G01*
X132688500Y-129777500D02*
X132688500Y-129302500D01*
G75*
G02*
X132926000Y-129065000I237500J0D01*
G01*
X133426000Y-129065000D01*
G75*
G02*
X133663500Y-129302500I0J-237500D01*
G01*
X133663500Y-129777500D01*
G75*
G02*
X133426000Y-130015000I-237500J0D01*
G01*
X132926000Y-130015000D01*
G75*
G02*
X132688500Y-129777500I0J237500D01*
G01*
G37*
%TD*%
%TO.C,R15*%
G36*
G01*
X133425000Y-118237500D02*
X133425000Y-117762500D01*
G75*
G02*
X133662500Y-117525000I237500J0D01*
G01*
X134162500Y-117525000D01*
G75*
G02*
X134400000Y-117762500I0J-237500D01*
G01*
X134400000Y-118237500D01*
G75*
G02*
X134162500Y-118475000I-237500J0D01*
G01*
X133662500Y-118475000D01*
G75*
G02*
X133425000Y-118237500I0J237500D01*
G01*
G37*
G36*
G01*
X131600000Y-118237500D02*
X131600000Y-117762500D01*
G75*
G02*
X131837500Y-117525000I237500J0D01*
G01*
X132337500Y-117525000D01*
G75*
G02*
X132575000Y-117762500I0J-237500D01*
G01*
X132575000Y-118237500D01*
G75*
G02*
X132337500Y-118475000I-237500J0D01*
G01*
X131837500Y-118475000D01*
G75*
G02*
X131600000Y-118237500I0J237500D01*
G01*
G37*
%TD*%
%TO.C,R14*%
G36*
G01*
X139132500Y-129777500D02*
X139132500Y-129302500D01*
G75*
G02*
X139370000Y-129065000I237500J0D01*
G01*
X139870000Y-129065000D01*
G75*
G02*
X140107500Y-129302500I0J-237500D01*
G01*
X140107500Y-129777500D01*
G75*
G02*
X139870000Y-130015000I-237500J0D01*
G01*
X139370000Y-130015000D01*
G75*
G02*
X139132500Y-129777500I0J237500D01*
G01*
G37*
G36*
G01*
X137307500Y-129777500D02*
X137307500Y-129302500D01*
G75*
G02*
X137545000Y-129065000I237500J0D01*
G01*
X138045000Y-129065000D01*
G75*
G02*
X138282500Y-129302500I0J-237500D01*
G01*
X138282500Y-129777500D01*
G75*
G02*
X138045000Y-130015000I-237500J0D01*
G01*
X137545000Y-130015000D01*
G75*
G02*
X137307500Y-129777500I0J237500D01*
G01*
G37*
%TD*%
%TO.C,R13*%
G36*
G01*
X140512500Y-118237500D02*
X140512500Y-117762500D01*
G75*
G02*
X140750000Y-117525000I237500J0D01*
G01*
X141250000Y-117525000D01*
G75*
G02*
X141487500Y-117762500I0J-237500D01*
G01*
X141487500Y-118237500D01*
G75*
G02*
X141250000Y-118475000I-237500J0D01*
G01*
X140750000Y-118475000D01*
G75*
G02*
X140512500Y-118237500I0J237500D01*
G01*
G37*
G36*
G01*
X138687500Y-118237500D02*
X138687500Y-117762500D01*
G75*
G02*
X138925000Y-117525000I237500J0D01*
G01*
X139425000Y-117525000D01*
G75*
G02*
X139662500Y-117762500I0J-237500D01*
G01*
X139662500Y-118237500D01*
G75*
G02*
X139425000Y-118475000I-237500J0D01*
G01*
X138925000Y-118475000D01*
G75*
G02*
X138687500Y-118237500I0J237500D01*
G01*
G37*
%TD*%
%TO.C,R12*%
G36*
G01*
X140762500Y-136512500D02*
X141237500Y-136512500D01*
G75*
G02*
X141475000Y-136750000I0J-237500D01*
G01*
X141475000Y-137250000D01*
G75*
G02*
X141237500Y-137487500I-237500J0D01*
G01*
X140762500Y-137487500D01*
G75*
G02*
X140525000Y-137250000I0J237500D01*
G01*
X140525000Y-136750000D01*
G75*
G02*
X140762500Y-136512500I237500J0D01*
G01*
G37*
G36*
G01*
X140762500Y-134687500D02*
X141237500Y-134687500D01*
G75*
G02*
X141475000Y-134925000I0J-237500D01*
G01*
X141475000Y-135425000D01*
G75*
G02*
X141237500Y-135662500I-237500J0D01*
G01*
X140762500Y-135662500D01*
G75*
G02*
X140525000Y-135425000I0J237500D01*
G01*
X140525000Y-134925000D01*
G75*
G02*
X140762500Y-134687500I237500J0D01*
G01*
G37*
%TD*%
%TO.C,R11*%
G36*
G01*
X138282500Y-130826500D02*
X138282500Y-131301500D01*
G75*
G02*
X138045000Y-131539000I-237500J0D01*
G01*
X137545000Y-131539000D01*
G75*
G02*
X137307500Y-131301500I0J237500D01*
G01*
X137307500Y-130826500D01*
G75*
G02*
X137545000Y-130589000I237500J0D01*
G01*
X138045000Y-130589000D01*
G75*
G02*
X138282500Y-130826500I0J-237500D01*
G01*
G37*
G36*
G01*
X140107500Y-130826500D02*
X140107500Y-131301500D01*
G75*
G02*
X139870000Y-131539000I-237500J0D01*
G01*
X139370000Y-131539000D01*
G75*
G02*
X139132500Y-131301500I0J237500D01*
G01*
X139132500Y-130826500D01*
G75*
G02*
X139370000Y-130589000I237500J0D01*
G01*
X139870000Y-130589000D01*
G75*
G02*
X140107500Y-130826500I0J-237500D01*
G01*
G37*
%TD*%
%TO.C,R10*%
G36*
G01*
X142762500Y-136425000D02*
X143237500Y-136425000D01*
G75*
G02*
X143475000Y-136662500I0J-237500D01*
G01*
X143475000Y-137162500D01*
G75*
G02*
X143237500Y-137400000I-237500J0D01*
G01*
X142762500Y-137400000D01*
G75*
G02*
X142525000Y-137162500I0J237500D01*
G01*
X142525000Y-136662500D01*
G75*
G02*
X142762500Y-136425000I237500J0D01*
G01*
G37*
G36*
G01*
X142762500Y-134600000D02*
X143237500Y-134600000D01*
G75*
G02*
X143475000Y-134837500I0J-237500D01*
G01*
X143475000Y-135337500D01*
G75*
G02*
X143237500Y-135575000I-237500J0D01*
G01*
X142762500Y-135575000D01*
G75*
G02*
X142525000Y-135337500I0J237500D01*
G01*
X142525000Y-134837500D01*
G75*
G02*
X142762500Y-134600000I237500J0D01*
G01*
G37*
%TD*%
%TO.C,R9*%
G36*
G01*
X139662500Y-116262500D02*
X139662500Y-116737500D01*
G75*
G02*
X139425000Y-116975000I-237500J0D01*
G01*
X138925000Y-116975000D01*
G75*
G02*
X138687500Y-116737500I0J237500D01*
G01*
X138687500Y-116262500D01*
G75*
G02*
X138925000Y-116025000I237500J0D01*
G01*
X139425000Y-116025000D01*
G75*
G02*
X139662500Y-116262500I0J-237500D01*
G01*
G37*
G36*
G01*
X141487500Y-116262500D02*
X141487500Y-116737500D01*
G75*
G02*
X141250000Y-116975000I-237500J0D01*
G01*
X140750000Y-116975000D01*
G75*
G02*
X140512500Y-116737500I0J237500D01*
G01*
X140512500Y-116262500D01*
G75*
G02*
X140750000Y-116025000I237500J0D01*
G01*
X141250000Y-116025000D01*
G75*
G02*
X141487500Y-116262500I0J-237500D01*
G01*
G37*
%TD*%
%TO.C,R8*%
G36*
G01*
X120697500Y-103862500D02*
X120697500Y-104337500D01*
G75*
G02*
X120460000Y-104575000I-237500J0D01*
G01*
X119960000Y-104575000D01*
G75*
G02*
X119722500Y-104337500I0J237500D01*
G01*
X119722500Y-103862500D01*
G75*
G02*
X119960000Y-103625000I237500J0D01*
G01*
X120460000Y-103625000D01*
G75*
G02*
X120697500Y-103862500I0J-237500D01*
G01*
G37*
G36*
G01*
X122522500Y-103862500D02*
X122522500Y-104337500D01*
G75*
G02*
X122285000Y-104575000I-237500J0D01*
G01*
X121785000Y-104575000D01*
G75*
G02*
X121547500Y-104337500I0J237500D01*
G01*
X121547500Y-103862500D01*
G75*
G02*
X121785000Y-103625000I237500J0D01*
G01*
X122285000Y-103625000D01*
G75*
G02*
X122522500Y-103862500I0J-237500D01*
G01*
G37*
%TD*%
%TO.C,R7*%
G36*
G01*
X134262500Y-88925000D02*
X134737500Y-88925000D01*
G75*
G02*
X134975000Y-89162500I0J-237500D01*
G01*
X134975000Y-89662500D01*
G75*
G02*
X134737500Y-89900000I-237500J0D01*
G01*
X134262500Y-89900000D01*
G75*
G02*
X134025000Y-89662500I0J237500D01*
G01*
X134025000Y-89162500D01*
G75*
G02*
X134262500Y-88925000I237500J0D01*
G01*
G37*
G36*
G01*
X134262500Y-87100000D02*
X134737500Y-87100000D01*
G75*
G02*
X134975000Y-87337500I0J-237500D01*
G01*
X134975000Y-87837500D01*
G75*
G02*
X134737500Y-88075000I-237500J0D01*
G01*
X134262500Y-88075000D01*
G75*
G02*
X134025000Y-87837500I0J237500D01*
G01*
X134025000Y-87337500D01*
G75*
G02*
X134262500Y-87100000I237500J0D01*
G01*
G37*
%TD*%
%TO.C,R6*%
G36*
G01*
X134262500Y-82425000D02*
X134737500Y-82425000D01*
G75*
G02*
X134975000Y-82662500I0J-237500D01*
G01*
X134975000Y-83162500D01*
G75*
G02*
X134737500Y-83400000I-237500J0D01*
G01*
X134262500Y-83400000D01*
G75*
G02*
X134025000Y-83162500I0J237500D01*
G01*
X134025000Y-82662500D01*
G75*
G02*
X134262500Y-82425000I237500J0D01*
G01*
G37*
G36*
G01*
X134262500Y-80600000D02*
X134737500Y-80600000D01*
G75*
G02*
X134975000Y-80837500I0J-237500D01*
G01*
X134975000Y-81337500D01*
G75*
G02*
X134737500Y-81575000I-237500J0D01*
G01*
X134262500Y-81575000D01*
G75*
G02*
X134025000Y-81337500I0J237500D01*
G01*
X134025000Y-80837500D01*
G75*
G02*
X134262500Y-80600000I237500J0D01*
G01*
G37*
%TD*%
%TO.C,R5*%
G36*
G01*
X135262500Y-74925000D02*
X135737500Y-74925000D01*
G75*
G02*
X135975000Y-75162500I0J-237500D01*
G01*
X135975000Y-75662500D01*
G75*
G02*
X135737500Y-75900000I-237500J0D01*
G01*
X135262500Y-75900000D01*
G75*
G02*
X135025000Y-75662500I0J237500D01*
G01*
X135025000Y-75162500D01*
G75*
G02*
X135262500Y-74925000I237500J0D01*
G01*
G37*
G36*
G01*
X135262500Y-73100000D02*
X135737500Y-73100000D01*
G75*
G02*
X135975000Y-73337500I0J-237500D01*
G01*
X135975000Y-73837500D01*
G75*
G02*
X135737500Y-74075000I-237500J0D01*
G01*
X135262500Y-74075000D01*
G75*
G02*
X135025000Y-73837500I0J237500D01*
G01*
X135025000Y-73337500D01*
G75*
G02*
X135262500Y-73100000I237500J0D01*
G01*
G37*
%TD*%
%TO.C,R4*%
G36*
G01*
X121547500Y-102837500D02*
X121547500Y-102362500D01*
G75*
G02*
X121785000Y-102125000I237500J0D01*
G01*
X122285000Y-102125000D01*
G75*
G02*
X122522500Y-102362500I0J-237500D01*
G01*
X122522500Y-102837500D01*
G75*
G02*
X122285000Y-103075000I-237500J0D01*
G01*
X121785000Y-103075000D01*
G75*
G02*
X121547500Y-102837500I0J237500D01*
G01*
G37*
G36*
G01*
X119722500Y-102837500D02*
X119722500Y-102362500D01*
G75*
G02*
X119960000Y-102125000I237500J0D01*
G01*
X120460000Y-102125000D01*
G75*
G02*
X120697500Y-102362500I0J-237500D01*
G01*
X120697500Y-102837500D01*
G75*
G02*
X120460000Y-103075000I-237500J0D01*
G01*
X119960000Y-103075000D01*
G75*
G02*
X119722500Y-102837500I0J237500D01*
G01*
G37*
%TD*%
%TO.C,R3*%
G36*
G01*
X133237500Y-88075000D02*
X132762500Y-88075000D01*
G75*
G02*
X132525000Y-87837500I0J237500D01*
G01*
X132525000Y-87337500D01*
G75*
G02*
X132762500Y-87100000I237500J0D01*
G01*
X133237500Y-87100000D01*
G75*
G02*
X133475000Y-87337500I0J-237500D01*
G01*
X133475000Y-87837500D01*
G75*
G02*
X133237500Y-88075000I-237500J0D01*
G01*
G37*
G36*
G01*
X133237500Y-89900000D02*
X132762500Y-89900000D01*
G75*
G02*
X132525000Y-89662500I0J237500D01*
G01*
X132525000Y-89162500D01*
G75*
G02*
X132762500Y-88925000I237500J0D01*
G01*
X133237500Y-88925000D01*
G75*
G02*
X133475000Y-89162500I0J-237500D01*
G01*
X133475000Y-89662500D01*
G75*
G02*
X133237500Y-89900000I-237500J0D01*
G01*
G37*
%TD*%
%TO.C,R2*%
G36*
G01*
X133237500Y-81575000D02*
X132762500Y-81575000D01*
G75*
G02*
X132525000Y-81337500I0J237500D01*
G01*
X132525000Y-80837500D01*
G75*
G02*
X132762500Y-80600000I237500J0D01*
G01*
X133237500Y-80600000D01*
G75*
G02*
X133475000Y-80837500I0J-237500D01*
G01*
X133475000Y-81337500D01*
G75*
G02*
X133237500Y-81575000I-237500J0D01*
G01*
G37*
G36*
G01*
X133237500Y-83400000D02*
X132762500Y-83400000D01*
G75*
G02*
X132525000Y-83162500I0J237500D01*
G01*
X132525000Y-82662500D01*
G75*
G02*
X132762500Y-82425000I237500J0D01*
G01*
X133237500Y-82425000D01*
G75*
G02*
X133475000Y-82662500I0J-237500D01*
G01*
X133475000Y-83162500D01*
G75*
G02*
X133237500Y-83400000I-237500J0D01*
G01*
G37*
%TD*%
%TO.C,R1*%
G36*
G01*
X134237500Y-74075000D02*
X133762500Y-74075000D01*
G75*
G02*
X133525000Y-73837500I0J237500D01*
G01*
X133525000Y-73337500D01*
G75*
G02*
X133762500Y-73100000I237500J0D01*
G01*
X134237500Y-73100000D01*
G75*
G02*
X134475000Y-73337500I0J-237500D01*
G01*
X134475000Y-73837500D01*
G75*
G02*
X134237500Y-74075000I-237500J0D01*
G01*
G37*
G36*
G01*
X134237500Y-75900000D02*
X133762500Y-75900000D01*
G75*
G02*
X133525000Y-75662500I0J237500D01*
G01*
X133525000Y-75162500D01*
G75*
G02*
X133762500Y-74925000I237500J0D01*
G01*
X134237500Y-74925000D01*
G75*
G02*
X134475000Y-75162500I0J-237500D01*
G01*
X134475000Y-75662500D01*
G75*
G02*
X134237500Y-75900000I-237500J0D01*
G01*
G37*
%TD*%
D11*
%TO.C,Q4*%
X123200000Y-136100000D03*
X121200000Y-137050000D03*
X121200000Y-135150000D03*
%TD*%
%TO.C,Q3*%
X128500000Y-136000000D03*
X126500000Y-136950000D03*
X126500000Y-135050000D03*
%TD*%
D12*
%TO.C,Q2*%
X133500000Y-137000000D03*
X132550000Y-135000000D03*
X134450000Y-135000000D03*
%TD*%
%TO.C,Q1*%
X139500000Y-153500000D03*
X138550000Y-151500000D03*
X140450000Y-151500000D03*
%TD*%
D13*
%TO.C,D5*%
X143000000Y-73350000D03*
X143000000Y-76650000D03*
%TD*%
D14*
%TO.C,D4*%
X123550000Y-106100000D03*
X120250000Y-106100000D03*
%TD*%
D13*
%TO.C,D3*%
X136500000Y-86107000D03*
X136500000Y-89407000D03*
%TD*%
%TO.C,D2*%
X136500000Y-79631000D03*
X136500000Y-82931000D03*
%TD*%
%TO.C,D1*%
X137500000Y-73350000D03*
X137500000Y-76650000D03*
%TD*%
%TO.C,C2*%
G36*
G01*
X136262500Y-122087500D02*
X136737500Y-122087500D01*
G75*
G02*
X136975000Y-122325000I0J-237500D01*
G01*
X136975000Y-122925000D01*
G75*
G02*
X136737500Y-123162500I-237500J0D01*
G01*
X136262500Y-123162500D01*
G75*
G02*
X136025000Y-122925000I0J237500D01*
G01*
X136025000Y-122325000D01*
G75*
G02*
X136262500Y-122087500I237500J0D01*
G01*
G37*
G36*
G01*
X136262500Y-120362500D02*
X136737500Y-120362500D01*
G75*
G02*
X136975000Y-120600000I0J-237500D01*
G01*
X136975000Y-121200000D01*
G75*
G02*
X136737500Y-121437500I-237500J0D01*
G01*
X136262500Y-121437500D01*
G75*
G02*
X136025000Y-121200000I0J237500D01*
G01*
X136025000Y-120600000D01*
G75*
G02*
X136262500Y-120362500I237500J0D01*
G01*
G37*
%TD*%
%TO.C,C1*%
G36*
G01*
X142525000Y-80487500D02*
X143475000Y-80487500D01*
G75*
G02*
X143725000Y-80737500I0J-250000D01*
G01*
X143725000Y-81412500D01*
G75*
G02*
X143475000Y-81662500I-250000J0D01*
G01*
X142525000Y-81662500D01*
G75*
G02*
X142275000Y-81412500I0J250000D01*
G01*
X142275000Y-80737500D01*
G75*
G02*
X142525000Y-80487500I250000J0D01*
G01*
G37*
G36*
G01*
X142525000Y-78412500D02*
X143475000Y-78412500D01*
G75*
G02*
X143725000Y-78662500I0J-250000D01*
G01*
X143725000Y-79337500D01*
G75*
G02*
X143475000Y-79587500I-250000J0D01*
G01*
X142525000Y-79587500D01*
G75*
G02*
X142275000Y-79337500I0J250000D01*
G01*
X142275000Y-78662500D01*
G75*
G02*
X142525000Y-78412500I250000J0D01*
G01*
G37*
%TD*%
M02*
