M48
; DRILL file {KiCad (5.1.9-0-10_14)} date Sunday, March 07, 2021 at 10:41:34 PM
; FORMAT={-:-/ absolute / inch / decimal}
; #@! TF.CreationDate,2021-03-07T22:41:34+09:00
; #@! TF.GenerationSoftware,Kicad,Pcbnew,(5.1.9-0-10_14)
; #@! TF.FileFunction,Plated,1,2,PTH
FMAT,2
INCH
T1C0.0157
T2C0.0197
T3C0.0276
T4C0.0315
T5C0.0394
%
G90
G05
T1
X4.6063Y-2.0472
X4.6063Y-2.5197
X4.6063Y-3.5039
X4.6063Y-4.0157
X4.6063Y-4.2913
X4.6063Y-4.7638
X4.6063Y-5.2756
X4.6063Y-5.7087
X4.6063Y-6.063
X4.7087Y-5.3937
X4.8661Y-4.1024
X5.0787Y-2.0472
X5.1575Y-3.5039
X5.2165Y-5.2559
X5.2953Y-3.5827
X5.2953Y-3.8976
X5.374Y-4.8937
X5.4528Y-5.9055
X5.4724Y-2.0472
X5.4882Y-2.8858
X5.5276Y-4.8661
X5.6299Y-3.5433
X5.6299Y-3.8189
X5.6299Y-4.4882
X5.6299Y-4.6457
X5.6299Y-5.5906
X5.6299Y-5.8268
X5.6299Y-6.2205
T2
X5.2913Y-5.2441
X5.33Y-4.645
X5.374Y-3.3189
X5.4213Y-4.645
X5.6299Y-3.2677
T3
X5.041Y-6.0843
X5.141Y-6.0794
X5.5039Y-3.0197
X5.5157Y-5.8622
T5
X5.2362Y-4.0551
X5.2362Y-4.1551
X5.2362Y-4.2551
X5.2756Y-2.2047
X5.2756Y-2.3047
X5.2756Y-2.4047
X5.2756Y-2.5047
X5.2756Y-2.6047
X5.3362Y-4.0551
X5.3362Y-4.1551
X5.3362Y-4.2551
X5.3756Y-2.2047
X5.3756Y-2.3047
X5.3756Y-2.4047
X5.3756Y-2.5047
X5.3756Y-2.6047
T4
G00X4.626Y-2.2303
M15
G01X4.626Y-2.2972
M16
G05
G00X4.626Y-2.7224
M15
G01X4.626Y-2.7894
M16
G05
G00X4.626Y-3.2146
M15
G01X4.626Y-3.2815
M16
G05
G00X4.626Y-3.7067
M15
G01X4.626Y-3.7736
M16
G05
G00X4.626Y-4.4941
M15
G01X4.626Y-4.561
M16
G05
G00X4.626Y-4.9862
M15
G01X4.626Y-5.0531
M16
G05
G00X5.0256Y-2.4685
M15
G01X5.0925Y-2.4685
M16
G05
G00X5.0256Y-2.9606
M15
G01X5.0925Y-2.9606
M16
G05
G00X5.0256Y-3.4528
M15
G01X5.0925Y-3.4528
M16
G05
G00X5.0256Y-3.9449
M15
G01X5.0925Y-3.9449
M16
G05
G00X5.0256Y-4.7323
M15
G01X5.0925Y-4.7323
M16
G05
G00X5.0256Y-5.2244
M15
G01X5.0925Y-5.2244
M16
G05
G00X5.1457Y-2.2303
M15
G01X5.1457Y-2.2972
M16
G05
G00X5.1457Y-2.7224
M15
G01X5.1457Y-2.7894
M16
G05
G00X5.1457Y-3.2146
M15
G01X5.1457Y-3.2815
M16
G05
G00X5.1457Y-3.7067
M15
G01X5.1457Y-3.7736
M16
G05
G00X5.1457Y-4.4941
M15
G01X5.1457Y-4.561
M16
G05
G00X5.1457Y-4.9862
M15
G01X5.1457Y-5.0531
M16
G05
T0
M30
