%TF.GenerationSoftware,KiCad,Pcbnew,(5.1.9-0-10_14)*%
%TF.CreationDate,2021-03-07T22:41:29+09:00*%
%TF.ProjectId,jade_hardware,6a616465-5f68-4617-9264-776172652e6b,A*%
%TF.SameCoordinates,Original*%
%TF.FileFunction,Soldermask,Bot*%
%TF.FilePolarity,Negative*%
%FSLAX46Y46*%
G04 Gerber Fmt 4.6, Leading zero omitted, Abs format (unit mm)*
G04 Created by KiCad (PCBNEW (5.1.9-0-10_14)) date 2021-03-07 22:41:29*
%MOMM*%
%LPD*%
G01*
G04 APERTURE LIST*
%ADD10O,1.700000X1.700000*%
%ADD11R,1.700000X1.700000*%
G04 APERTURE END LIST*
%TO.C,J8*%
G36*
G01*
X129600000Y-133200000D02*
X127400000Y-133200000D01*
G75*
G02*
X127150000Y-132950000I0J250000D01*
G01*
X127150000Y-132450000D01*
G75*
G02*
X127400000Y-132200000I250000J0D01*
G01*
X129600000Y-132200000D01*
G75*
G02*
X129850000Y-132450000I0J-250000D01*
G01*
X129850000Y-132950000D01*
G75*
G02*
X129600000Y-133200000I-250000J0D01*
G01*
G37*
G36*
G01*
X130200000Y-128600000D02*
X130200000Y-126400000D01*
G75*
G02*
X130450000Y-126150000I250000J0D01*
G01*
X130950000Y-126150000D01*
G75*
G02*
X131200000Y-126400000I0J-250000D01*
G01*
X131200000Y-128600000D01*
G75*
G02*
X130950000Y-128850000I-250000J0D01*
G01*
X130450000Y-128850000D01*
G75*
G02*
X130200000Y-128600000I0J250000D01*
G01*
G37*
G36*
G01*
X117000000Y-128600000D02*
X117000000Y-126400000D01*
G75*
G02*
X117250000Y-126150000I250000J0D01*
G01*
X117750000Y-126150000D01*
G75*
G02*
X118000000Y-126400000I0J-250000D01*
G01*
X118000000Y-128600000D01*
G75*
G02*
X117750000Y-128850000I-250000J0D01*
G01*
X117250000Y-128850000D01*
G75*
G02*
X117000000Y-128600000I0J250000D01*
G01*
G37*
%TD*%
%TO.C,J7*%
G36*
G01*
X129600000Y-120700000D02*
X127400000Y-120700000D01*
G75*
G02*
X127150000Y-120450000I0J250000D01*
G01*
X127150000Y-119950000D01*
G75*
G02*
X127400000Y-119700000I250000J0D01*
G01*
X129600000Y-119700000D01*
G75*
G02*
X129850000Y-119950000I0J-250000D01*
G01*
X129850000Y-120450000D01*
G75*
G02*
X129600000Y-120700000I-250000J0D01*
G01*
G37*
G36*
G01*
X130200000Y-116100000D02*
X130200000Y-113900000D01*
G75*
G02*
X130450000Y-113650000I250000J0D01*
G01*
X130950000Y-113650000D01*
G75*
G02*
X131200000Y-113900000I0J-250000D01*
G01*
X131200000Y-116100000D01*
G75*
G02*
X130950000Y-116350000I-250000J0D01*
G01*
X130450000Y-116350000D01*
G75*
G02*
X130200000Y-116100000I0J250000D01*
G01*
G37*
G36*
G01*
X117000000Y-116100000D02*
X117000000Y-113900000D01*
G75*
G02*
X117250000Y-113650000I250000J0D01*
G01*
X117750000Y-113650000D01*
G75*
G02*
X118000000Y-113900000I0J-250000D01*
G01*
X118000000Y-116100000D01*
G75*
G02*
X117750000Y-116350000I-250000J0D01*
G01*
X117250000Y-116350000D01*
G75*
G02*
X117000000Y-116100000I0J250000D01*
G01*
G37*
%TD*%
D10*
%TO.C,J6*%
X135540000Y-108080000D03*
X133000000Y-108080000D03*
X135540000Y-105540000D03*
X133000000Y-105540000D03*
X135540000Y-103000000D03*
D11*
X133000000Y-103000000D03*
%TD*%
D10*
%TO.C,J5*%
X136540000Y-66160000D03*
X134000000Y-66160000D03*
X136540000Y-63620000D03*
X134000000Y-63620000D03*
X136540000Y-61080000D03*
X134000000Y-61080000D03*
X136540000Y-58540000D03*
X134000000Y-58540000D03*
X136540000Y-56000000D03*
D11*
X134000000Y-56000000D03*
%TD*%
%TO.C,J4*%
G36*
G01*
X129600000Y-100700000D02*
X127400000Y-100700000D01*
G75*
G02*
X127150000Y-100450000I0J250000D01*
G01*
X127150000Y-99950000D01*
G75*
G02*
X127400000Y-99700000I250000J0D01*
G01*
X129600000Y-99700000D01*
G75*
G02*
X129850000Y-99950000I0J-250000D01*
G01*
X129850000Y-100450000D01*
G75*
G02*
X129600000Y-100700000I-250000J0D01*
G01*
G37*
G36*
G01*
X130200000Y-96100000D02*
X130200000Y-93900000D01*
G75*
G02*
X130450000Y-93650000I250000J0D01*
G01*
X130950000Y-93650000D01*
G75*
G02*
X131200000Y-93900000I0J-250000D01*
G01*
X131200000Y-96100000D01*
G75*
G02*
X130950000Y-96350000I-250000J0D01*
G01*
X130450000Y-96350000D01*
G75*
G02*
X130200000Y-96100000I0J250000D01*
G01*
G37*
G36*
G01*
X117000000Y-96100000D02*
X117000000Y-93900000D01*
G75*
G02*
X117250000Y-93650000I250000J0D01*
G01*
X117750000Y-93650000D01*
G75*
G02*
X118000000Y-93900000I0J-250000D01*
G01*
X118000000Y-96100000D01*
G75*
G02*
X117750000Y-96350000I-250000J0D01*
G01*
X117250000Y-96350000D01*
G75*
G02*
X117000000Y-96100000I0J250000D01*
G01*
G37*
%TD*%
%TO.C,J3*%
G36*
G01*
X129600000Y-88200000D02*
X127400000Y-88200000D01*
G75*
G02*
X127150000Y-87950000I0J250000D01*
G01*
X127150000Y-87450000D01*
G75*
G02*
X127400000Y-87200000I250000J0D01*
G01*
X129600000Y-87200000D01*
G75*
G02*
X129850000Y-87450000I0J-250000D01*
G01*
X129850000Y-87950000D01*
G75*
G02*
X129600000Y-88200000I-250000J0D01*
G01*
G37*
G36*
G01*
X130200000Y-83600000D02*
X130200000Y-81400000D01*
G75*
G02*
X130450000Y-81150000I250000J0D01*
G01*
X130950000Y-81150000D01*
G75*
G02*
X131200000Y-81400000I0J-250000D01*
G01*
X131200000Y-83600000D01*
G75*
G02*
X130950000Y-83850000I-250000J0D01*
G01*
X130450000Y-83850000D01*
G75*
G02*
X130200000Y-83600000I0J250000D01*
G01*
G37*
G36*
G01*
X117000000Y-83600000D02*
X117000000Y-81400000D01*
G75*
G02*
X117250000Y-81150000I250000J0D01*
G01*
X117750000Y-81150000D01*
G75*
G02*
X118000000Y-81400000I0J-250000D01*
G01*
X118000000Y-83600000D01*
G75*
G02*
X117750000Y-83850000I-250000J0D01*
G01*
X117250000Y-83850000D01*
G75*
G02*
X117000000Y-83600000I0J250000D01*
G01*
G37*
%TD*%
%TO.C,J2*%
G36*
G01*
X129600000Y-75700000D02*
X127400000Y-75700000D01*
G75*
G02*
X127150000Y-75450000I0J250000D01*
G01*
X127150000Y-74950000D01*
G75*
G02*
X127400000Y-74700000I250000J0D01*
G01*
X129600000Y-74700000D01*
G75*
G02*
X129850000Y-74950000I0J-250000D01*
G01*
X129850000Y-75450000D01*
G75*
G02*
X129600000Y-75700000I-250000J0D01*
G01*
G37*
G36*
G01*
X130200000Y-71100000D02*
X130200000Y-68900000D01*
G75*
G02*
X130450000Y-68650000I250000J0D01*
G01*
X130950000Y-68650000D01*
G75*
G02*
X131200000Y-68900000I0J-250000D01*
G01*
X131200000Y-71100000D01*
G75*
G02*
X130950000Y-71350000I-250000J0D01*
G01*
X130450000Y-71350000D01*
G75*
G02*
X130200000Y-71100000I0J250000D01*
G01*
G37*
G36*
G01*
X117000000Y-71100000D02*
X117000000Y-68900000D01*
G75*
G02*
X117250000Y-68650000I250000J0D01*
G01*
X117750000Y-68650000D01*
G75*
G02*
X118000000Y-68900000I0J-250000D01*
G01*
X118000000Y-71100000D01*
G75*
G02*
X117750000Y-71350000I-250000J0D01*
G01*
X117250000Y-71350000D01*
G75*
G02*
X117000000Y-71100000I0J250000D01*
G01*
G37*
%TD*%
%TO.C,J1*%
G36*
G01*
X129600000Y-63200000D02*
X127400000Y-63200000D01*
G75*
G02*
X127150000Y-62950000I0J250000D01*
G01*
X127150000Y-62450000D01*
G75*
G02*
X127400000Y-62200000I250000J0D01*
G01*
X129600000Y-62200000D01*
G75*
G02*
X129850000Y-62450000I0J-250000D01*
G01*
X129850000Y-62950000D01*
G75*
G02*
X129600000Y-63200000I-250000J0D01*
G01*
G37*
G36*
G01*
X130200000Y-58600000D02*
X130200000Y-56400000D01*
G75*
G02*
X130450000Y-56150000I250000J0D01*
G01*
X130950000Y-56150000D01*
G75*
G02*
X131200000Y-56400000I0J-250000D01*
G01*
X131200000Y-58600000D01*
G75*
G02*
X130950000Y-58850000I-250000J0D01*
G01*
X130450000Y-58850000D01*
G75*
G02*
X130200000Y-58600000I0J250000D01*
G01*
G37*
G36*
G01*
X117000000Y-58600000D02*
X117000000Y-56400000D01*
G75*
G02*
X117250000Y-56150000I250000J0D01*
G01*
X117750000Y-56150000D01*
G75*
G02*
X118000000Y-56400000I0J-250000D01*
G01*
X118000000Y-58600000D01*
G75*
G02*
X117750000Y-58850000I-250000J0D01*
G01*
X117250000Y-58850000D01*
G75*
G02*
X117000000Y-58600000I0J250000D01*
G01*
G37*
%TD*%
M02*
