%TF.GenerationSoftware,KiCad,Pcbnew,(5.1.9-0-10_14)*%
%TF.CreationDate,2021-03-07T22:41:29+09:00*%
%TF.ProjectId,jade_hardware,6a616465-5f68-4617-9264-776172652e6b,A*%
%TF.SameCoordinates,Original*%
%TF.FileFunction,Legend,Top*%
%TF.FilePolarity,Positive*%
%FSLAX46Y46*%
G04 Gerber Fmt 4.6, Leading zero omitted, Abs format (unit mm)*
G04 Created by KiCad (PCBNEW (5.1.9-0-10_14)) date 2021-03-07 22:41:29*
%MOMM*%
%LPD*%
G01*
G04 APERTURE LIST*
%ADD10C,0.150000*%
%ADD11C,1.000000*%
%ADD12C,0.120000*%
%ADD13C,0.127000*%
%ADD14O,1.998980X2.748280*%
%ADD15R,0.900000X0.800000*%
%ADD16R,0.800000X0.900000*%
%ADD17O,1.700000X1.700000*%
%ADD18R,1.700000X1.700000*%
%ADD19R,1.200000X0.900000*%
%ADD20R,0.900000X1.200000*%
G04 APERTURE END LIST*
D10*
X129028571Y-103473809D02*
X129142857Y-103511904D01*
X129333333Y-103511904D01*
X129409523Y-103473809D01*
X129447619Y-103435714D01*
X129485714Y-103359523D01*
X129485714Y-103283333D01*
X129447619Y-103207142D01*
X129409523Y-103169047D01*
X129333333Y-103130952D01*
X129180952Y-103092857D01*
X129104761Y-103054761D01*
X129066666Y-103016666D01*
X129028571Y-102940476D01*
X129028571Y-102864285D01*
X129066666Y-102788095D01*
X129104761Y-102750000D01*
X129180952Y-102711904D01*
X129371428Y-102711904D01*
X129485714Y-102750000D01*
X129828571Y-103511904D02*
X129828571Y-102711904D01*
X130019047Y-102711904D01*
X130133333Y-102750000D01*
X130209523Y-102826190D01*
X130247619Y-102902380D01*
X130285714Y-103054761D01*
X130285714Y-103169047D01*
X130247619Y-103321428D01*
X130209523Y-103397619D01*
X130133333Y-103473809D01*
X130019047Y-103511904D01*
X129828571Y-103511904D01*
X130590476Y-103283333D02*
X130971428Y-103283333D01*
X130514285Y-103511904D02*
X130780952Y-102711904D01*
X131047619Y-103511904D01*
X129390476Y-107700000D02*
X129314285Y-107661904D01*
X129200000Y-107661904D01*
X129085714Y-107700000D01*
X129009523Y-107776190D01*
X128971428Y-107852380D01*
X128933333Y-108004761D01*
X128933333Y-108119047D01*
X128971428Y-108271428D01*
X129009523Y-108347619D01*
X129085714Y-108423809D01*
X129200000Y-108461904D01*
X129276190Y-108461904D01*
X129390476Y-108423809D01*
X129428571Y-108385714D01*
X129428571Y-108119047D01*
X129276190Y-108119047D01*
X129771428Y-108461904D02*
X129771428Y-107661904D01*
X130228571Y-108461904D01*
X130228571Y-107661904D01*
X130609523Y-108461904D02*
X130609523Y-107661904D01*
X130800000Y-107661904D01*
X130914285Y-107700000D01*
X130990476Y-107776190D01*
X131028571Y-107852380D01*
X131066666Y-108004761D01*
X131066666Y-108119047D01*
X131028571Y-108271428D01*
X130990476Y-108347619D01*
X130914285Y-108423809D01*
X130800000Y-108461904D01*
X130609523Y-108461904D01*
X129047619Y-106023809D02*
X129161904Y-106061904D01*
X129352380Y-106061904D01*
X129428571Y-106023809D01*
X129466666Y-105985714D01*
X129504761Y-105909523D01*
X129504761Y-105833333D01*
X129466666Y-105757142D01*
X129428571Y-105719047D01*
X129352380Y-105680952D01*
X129200000Y-105642857D01*
X129123809Y-105604761D01*
X129085714Y-105566666D01*
X129047619Y-105490476D01*
X129047619Y-105414285D01*
X129085714Y-105338095D01*
X129123809Y-105300000D01*
X129200000Y-105261904D01*
X129390476Y-105261904D01*
X129504761Y-105300000D01*
X130304761Y-105985714D02*
X130266666Y-106023809D01*
X130152380Y-106061904D01*
X130076190Y-106061904D01*
X129961904Y-106023809D01*
X129885714Y-105947619D01*
X129847619Y-105871428D01*
X129809523Y-105719047D01*
X129809523Y-105604761D01*
X129847619Y-105452380D01*
X129885714Y-105376190D01*
X129961904Y-105300000D01*
X130076190Y-105261904D01*
X130152380Y-105261904D01*
X130266666Y-105300000D01*
X130304761Y-105338095D01*
X131028571Y-106061904D02*
X130647619Y-106061904D01*
X130647619Y-105261904D01*
D11*
X131500000Y-111000000D02*
X138500000Y-111000000D01*
X132500000Y-68500000D02*
X139500000Y-68500000D01*
D12*
X137100000Y-125250000D02*
G75*
G03*
X137100000Y-125250000I-350000J0D01*
G01*
D13*
%TO.C,U1*%
X136150000Y-156100000D02*
X136150000Y-142200000D01*
D12*
X115150000Y-142300000D02*
X115150000Y-156100000D01*
D13*
X113626880Y-153600720D02*
X113626880Y-144606580D01*
X113626880Y-144606580D02*
X115150000Y-144600000D01*
X115150000Y-153600000D02*
X113626880Y-153605800D01*
D12*
X116757768Y-140338839D02*
G75*
G03*
X115150000Y-142300000I392232J-1961161D01*
G01*
X116650000Y-157958807D02*
G75*
G02*
X115143494Y-156100000I393494J1858807D01*
G01*
X134348639Y-158090111D02*
G75*
G03*
X136150000Y-156100000I-198639J1990111D01*
G01*
X134349007Y-140209926D02*
G75*
G02*
X136150000Y-142200000I-199007J-1990074D01*
G01*
%TO.C,U2*%
X137440000Y-123500000D02*
X137440000Y-126950000D01*
X137440000Y-123500000D02*
X137440000Y-121550000D01*
X142560000Y-123500000D02*
X142560000Y-125450000D01*
X142560000Y-123500000D02*
X142560000Y-121550000D01*
%TO.C,R16*%
X133833776Y-130062500D02*
X134343224Y-130062500D01*
X133833776Y-129017500D02*
X134343224Y-129017500D01*
%TO.C,R15*%
X132745276Y-118522500D02*
X133254724Y-118522500D01*
X132745276Y-117477500D02*
X133254724Y-117477500D01*
%TO.C,R14*%
X138452776Y-130062500D02*
X138962224Y-130062500D01*
X138452776Y-129017500D02*
X138962224Y-129017500D01*
%TO.C,R13*%
X139832776Y-118522500D02*
X140342224Y-118522500D01*
X139832776Y-117477500D02*
X140342224Y-117477500D01*
%TO.C,R12*%
X140477500Y-135832776D02*
X140477500Y-136342224D01*
X141522500Y-135832776D02*
X141522500Y-136342224D01*
%TO.C,R11*%
X138962224Y-130541500D02*
X138452776Y-130541500D01*
X138962224Y-131586500D02*
X138452776Y-131586500D01*
%TO.C,R10*%
X142477500Y-135745276D02*
X142477500Y-136254724D01*
X143522500Y-135745276D02*
X143522500Y-136254724D01*
%TO.C,R9*%
X140342224Y-115977500D02*
X139832776Y-115977500D01*
X140342224Y-117022500D02*
X139832776Y-117022500D01*
%TO.C,R8*%
X121377224Y-103577500D02*
X120867776Y-103577500D01*
X121377224Y-104622500D02*
X120867776Y-104622500D01*
%TO.C,R7*%
X133977500Y-88245276D02*
X133977500Y-88754724D01*
X135022500Y-88245276D02*
X135022500Y-88754724D01*
%TO.C,R6*%
X133977500Y-81745276D02*
X133977500Y-82254724D01*
X135022500Y-81745276D02*
X135022500Y-82254724D01*
%TO.C,R5*%
X134977500Y-74245276D02*
X134977500Y-74754724D01*
X136022500Y-74245276D02*
X136022500Y-74754724D01*
%TO.C,R4*%
X120867776Y-103122500D02*
X121377224Y-103122500D01*
X120867776Y-102077500D02*
X121377224Y-102077500D01*
%TO.C,R3*%
X133522500Y-88754724D02*
X133522500Y-88245276D01*
X132477500Y-88754724D02*
X132477500Y-88245276D01*
%TO.C,R2*%
X133522500Y-82254724D02*
X133522500Y-81745276D01*
X132477500Y-82254724D02*
X132477500Y-81745276D01*
%TO.C,R1*%
X134522500Y-74754724D02*
X134522500Y-74245276D01*
X133477500Y-74754724D02*
X133477500Y-74245276D01*
%TO.C,Q4*%
X122960000Y-137680000D02*
X121500000Y-137680000D01*
X122960000Y-134520000D02*
X120800000Y-134520000D01*
X122960000Y-134520000D02*
X122960000Y-135450000D01*
X122960000Y-137680000D02*
X122960000Y-136750000D01*
%TO.C,Q3*%
X128260000Y-137580000D02*
X126800000Y-137580000D01*
X128260000Y-134420000D02*
X126100000Y-134420000D01*
X128260000Y-134420000D02*
X128260000Y-135350000D01*
X128260000Y-137580000D02*
X128260000Y-136650000D01*
%TO.C,Q2*%
X131920000Y-136760000D02*
X131920000Y-135300000D01*
X135080000Y-136760000D02*
X135080000Y-134600000D01*
X135080000Y-136760000D02*
X134150000Y-136760000D01*
X131920000Y-136760000D02*
X132850000Y-136760000D01*
%TO.C,Q1*%
X137920000Y-153260000D02*
X137920000Y-151800000D01*
X141080000Y-153260000D02*
X141080000Y-151100000D01*
X141080000Y-153260000D02*
X140150000Y-153260000D01*
X137920000Y-153260000D02*
X138850000Y-153260000D01*
D10*
%TO.C,J8*%
X130700000Y-125700000D02*
X130700000Y-122300000D01*
X130700000Y-122300000D02*
X115000000Y-122300000D01*
X130700000Y-132700000D02*
X130700000Y-129300000D01*
X115000000Y-132700000D02*
X126800000Y-132700000D01*
X115000000Y-122300000D02*
X115000000Y-132700000D01*
X130200000Y-132700000D02*
X130700000Y-132700000D01*
%TO.C,J7*%
X130700000Y-113200000D02*
X130700000Y-109800000D01*
X130700000Y-109800000D02*
X115000000Y-109800000D01*
X130700000Y-120200000D02*
X130700000Y-116800000D01*
X115000000Y-120200000D02*
X126800000Y-120200000D01*
X115000000Y-109800000D02*
X115000000Y-120200000D01*
X130200000Y-120200000D02*
X130700000Y-120200000D01*
D12*
%TO.C,J6*%
X131730000Y-101730000D02*
X133000000Y-101730000D01*
X131730000Y-103000000D02*
X131730000Y-101730000D01*
X134042929Y-108460000D02*
X134497071Y-108460000D01*
X134042929Y-107700000D02*
X134497071Y-107700000D01*
X136582929Y-108460000D02*
X136980000Y-108460000D01*
X136582929Y-107700000D02*
X136980000Y-107700000D01*
X145640000Y-108460000D02*
X139640000Y-108460000D01*
X145640000Y-107700000D02*
X145640000Y-108460000D01*
X139640000Y-107700000D02*
X145640000Y-107700000D01*
X136980000Y-106810000D02*
X139640000Y-106810000D01*
X134042929Y-105920000D02*
X134497071Y-105920000D01*
X134042929Y-105160000D02*
X134497071Y-105160000D01*
X136582929Y-105920000D02*
X136980000Y-105920000D01*
X136582929Y-105160000D02*
X136980000Y-105160000D01*
X145640000Y-105920000D02*
X139640000Y-105920000D01*
X145640000Y-105160000D02*
X145640000Y-105920000D01*
X139640000Y-105160000D02*
X145640000Y-105160000D01*
X136980000Y-104270000D02*
X139640000Y-104270000D01*
X134110000Y-103380000D02*
X134497071Y-103380000D01*
X134110000Y-102620000D02*
X134497071Y-102620000D01*
X136582929Y-103380000D02*
X136980000Y-103380000D01*
X136582929Y-102620000D02*
X136980000Y-102620000D01*
X139640000Y-103280000D02*
X145640000Y-103280000D01*
X139640000Y-103160000D02*
X145640000Y-103160000D01*
X139640000Y-103040000D02*
X145640000Y-103040000D01*
X139640000Y-102920000D02*
X145640000Y-102920000D01*
X139640000Y-102800000D02*
X145640000Y-102800000D01*
X139640000Y-102680000D02*
X145640000Y-102680000D01*
X145640000Y-103380000D02*
X139640000Y-103380000D01*
X145640000Y-102620000D02*
X145640000Y-103380000D01*
X139640000Y-102620000D02*
X145640000Y-102620000D01*
X139640000Y-101670000D02*
X136980000Y-101670000D01*
X139640000Y-109410000D02*
X139640000Y-101670000D01*
X136980000Y-109410000D02*
X139640000Y-109410000D01*
X136980000Y-101670000D02*
X136980000Y-109410000D01*
%TO.C,J5*%
X132730000Y-54730000D02*
X134000000Y-54730000D01*
X132730000Y-56000000D02*
X132730000Y-54730000D01*
X135042929Y-66540000D02*
X135497071Y-66540000D01*
X135042929Y-65780000D02*
X135497071Y-65780000D01*
X137582929Y-66540000D02*
X137980000Y-66540000D01*
X137582929Y-65780000D02*
X137980000Y-65780000D01*
X146640000Y-66540000D02*
X140640000Y-66540000D01*
X146640000Y-65780000D02*
X146640000Y-66540000D01*
X140640000Y-65780000D02*
X146640000Y-65780000D01*
X137980000Y-64890000D02*
X140640000Y-64890000D01*
X135042929Y-64000000D02*
X135497071Y-64000000D01*
X135042929Y-63240000D02*
X135497071Y-63240000D01*
X137582929Y-64000000D02*
X137980000Y-64000000D01*
X137582929Y-63240000D02*
X137980000Y-63240000D01*
X146640000Y-64000000D02*
X140640000Y-64000000D01*
X146640000Y-63240000D02*
X146640000Y-64000000D01*
X140640000Y-63240000D02*
X146640000Y-63240000D01*
X137980000Y-62350000D02*
X140640000Y-62350000D01*
X135042929Y-61460000D02*
X135497071Y-61460000D01*
X135042929Y-60700000D02*
X135497071Y-60700000D01*
X137582929Y-61460000D02*
X137980000Y-61460000D01*
X137582929Y-60700000D02*
X137980000Y-60700000D01*
X146640000Y-61460000D02*
X140640000Y-61460000D01*
X146640000Y-60700000D02*
X146640000Y-61460000D01*
X140640000Y-60700000D02*
X146640000Y-60700000D01*
X137980000Y-59810000D02*
X140640000Y-59810000D01*
X135042929Y-58920000D02*
X135497071Y-58920000D01*
X135042929Y-58160000D02*
X135497071Y-58160000D01*
X137582929Y-58920000D02*
X137980000Y-58920000D01*
X137582929Y-58160000D02*
X137980000Y-58160000D01*
X146640000Y-58920000D02*
X140640000Y-58920000D01*
X146640000Y-58160000D02*
X146640000Y-58920000D01*
X140640000Y-58160000D02*
X146640000Y-58160000D01*
X137980000Y-57270000D02*
X140640000Y-57270000D01*
X135110000Y-56380000D02*
X135497071Y-56380000D01*
X135110000Y-55620000D02*
X135497071Y-55620000D01*
X137582929Y-56380000D02*
X137980000Y-56380000D01*
X137582929Y-55620000D02*
X137980000Y-55620000D01*
X140640000Y-56280000D02*
X146640000Y-56280000D01*
X140640000Y-56160000D02*
X146640000Y-56160000D01*
X140640000Y-56040000D02*
X146640000Y-56040000D01*
X140640000Y-55920000D02*
X146640000Y-55920000D01*
X140640000Y-55800000D02*
X146640000Y-55800000D01*
X140640000Y-55680000D02*
X146640000Y-55680000D01*
X146640000Y-56380000D02*
X140640000Y-56380000D01*
X146640000Y-55620000D02*
X146640000Y-56380000D01*
X140640000Y-55620000D02*
X146640000Y-55620000D01*
X140640000Y-54670000D02*
X137980000Y-54670000D01*
X140640000Y-67490000D02*
X140640000Y-54670000D01*
X137980000Y-67490000D02*
X140640000Y-67490000D01*
X137980000Y-54670000D02*
X137980000Y-67490000D01*
D10*
%TO.C,J4*%
X130700000Y-93200000D02*
X130700000Y-89800000D01*
X130700000Y-89800000D02*
X115000000Y-89800000D01*
X130700000Y-100200000D02*
X130700000Y-96800000D01*
X115000000Y-100200000D02*
X126800000Y-100200000D01*
X115000000Y-89800000D02*
X115000000Y-100200000D01*
X130200000Y-100200000D02*
X130700000Y-100200000D01*
%TO.C,J3*%
X130700000Y-80700000D02*
X130700000Y-77300000D01*
X130700000Y-77300000D02*
X115000000Y-77300000D01*
X130700000Y-87700000D02*
X130700000Y-84300000D01*
X115000000Y-87700000D02*
X126800000Y-87700000D01*
X115000000Y-77300000D02*
X115000000Y-87700000D01*
X130200000Y-87700000D02*
X130700000Y-87700000D01*
%TO.C,J2*%
X130700000Y-68200000D02*
X130700000Y-64800000D01*
X130700000Y-64800000D02*
X115000000Y-64800000D01*
X130700000Y-75200000D02*
X130700000Y-71800000D01*
X115000000Y-75200000D02*
X126800000Y-75200000D01*
X115000000Y-64800000D02*
X115000000Y-75200000D01*
X130200000Y-75200000D02*
X130700000Y-75200000D01*
%TO.C,J1*%
X130700000Y-55700000D02*
X130700000Y-52300000D01*
X130700000Y-52300000D02*
X115000000Y-52300000D01*
X130700000Y-62700000D02*
X130700000Y-59300000D01*
X115000000Y-62700000D02*
X126800000Y-62700000D01*
X115000000Y-52300000D02*
X115000000Y-62700000D01*
X130200000Y-62700000D02*
X130700000Y-62700000D01*
D12*
%TO.C,D5*%
X142000000Y-77250000D02*
X142000000Y-73350000D01*
X144000000Y-77250000D02*
X144000000Y-73350000D01*
X142000000Y-77250000D02*
X144000000Y-77250000D01*
%TO.C,D4*%
X119650000Y-105100000D02*
X123550000Y-105100000D01*
X119650000Y-107100000D02*
X123550000Y-107100000D01*
X119650000Y-105100000D02*
X119650000Y-107100000D01*
%TO.C,D3*%
X135500000Y-90007000D02*
X135500000Y-86107000D01*
X137500000Y-90007000D02*
X137500000Y-86107000D01*
X135500000Y-90007000D02*
X137500000Y-90007000D01*
%TO.C,D2*%
X135500000Y-83531000D02*
X135500000Y-79631000D01*
X137500000Y-83531000D02*
X137500000Y-79631000D01*
X135500000Y-83531000D02*
X137500000Y-83531000D01*
%TO.C,D1*%
X136500000Y-77250000D02*
X136500000Y-73350000D01*
X138500000Y-77250000D02*
X138500000Y-73350000D01*
X136500000Y-77250000D02*
X138500000Y-77250000D01*
%TO.C,C2*%
X135990000Y-121616233D02*
X135990000Y-121908767D01*
X137010000Y-121616233D02*
X137010000Y-121908767D01*
%TO.C,C1*%
X142265000Y-79776248D02*
X142265000Y-80298752D01*
X143735000Y-79776248D02*
X143735000Y-80298752D01*
%TO.C,U1*%
D10*
X121561904Y-149609523D02*
X122209523Y-149609523D01*
X122285714Y-149571428D01*
X122323809Y-149533333D01*
X122361904Y-149457142D01*
X122361904Y-149304761D01*
X122323809Y-149228571D01*
X122285714Y-149190476D01*
X122209523Y-149152380D01*
X121561904Y-149152380D01*
X122361904Y-148352380D02*
X122361904Y-148809523D01*
X122361904Y-148580952D02*
X121561904Y-148580952D01*
X121676190Y-148657142D01*
X121752380Y-148733333D01*
X121790476Y-148809523D01*
X123323809Y-153428571D02*
X123361904Y-153314285D01*
X123361904Y-153123809D01*
X123323809Y-153047619D01*
X123285714Y-153009523D01*
X123209523Y-152971428D01*
X123133333Y-152971428D01*
X123057142Y-153009523D01*
X123019047Y-153047619D01*
X122980952Y-153123809D01*
X122942857Y-153276190D01*
X122904761Y-153352380D01*
X122866666Y-153390476D01*
X122790476Y-153428571D01*
X122714285Y-153428571D01*
X122638095Y-153390476D01*
X122600000Y-153352380D01*
X122561904Y-153276190D01*
X122561904Y-153085714D01*
X122600000Y-152971428D01*
X123323809Y-152323809D02*
X123361904Y-152400000D01*
X123361904Y-152552380D01*
X123323809Y-152628571D01*
X123247619Y-152666666D01*
X122942857Y-152666666D01*
X122866666Y-152628571D01*
X122828571Y-152552380D01*
X122828571Y-152400000D01*
X122866666Y-152323809D01*
X122942857Y-152285714D01*
X123019047Y-152285714D01*
X123095238Y-152666666D01*
X123323809Y-151638095D02*
X123361904Y-151714285D01*
X123361904Y-151866666D01*
X123323809Y-151942857D01*
X123247619Y-151980952D01*
X122942857Y-151980952D01*
X122866666Y-151942857D01*
X122828571Y-151866666D01*
X122828571Y-151714285D01*
X122866666Y-151638095D01*
X122942857Y-151600000D01*
X123019047Y-151600000D01*
X123095238Y-151980952D01*
X123323809Y-150952380D02*
X123361904Y-151028571D01*
X123361904Y-151180952D01*
X123323809Y-151257142D01*
X123247619Y-151295238D01*
X122942857Y-151295238D01*
X122866666Y-151257142D01*
X122828571Y-151180952D01*
X122828571Y-151028571D01*
X122866666Y-150952380D01*
X122942857Y-150914285D01*
X123019047Y-150914285D01*
X123095238Y-151295238D01*
X123361904Y-150228571D02*
X122561904Y-150228571D01*
X123323809Y-150228571D02*
X123361904Y-150304761D01*
X123361904Y-150457142D01*
X123323809Y-150533333D01*
X123285714Y-150571428D01*
X123209523Y-150609523D01*
X122980952Y-150609523D01*
X122904761Y-150571428D01*
X122866666Y-150533333D01*
X122828571Y-150457142D01*
X122828571Y-150304761D01*
X122866666Y-150228571D01*
X122828571Y-149504761D02*
X123361904Y-149504761D01*
X122828571Y-149847619D02*
X123247619Y-149847619D01*
X123323809Y-149809523D01*
X123361904Y-149733333D01*
X123361904Y-149619047D01*
X123323809Y-149542857D01*
X123285714Y-149504761D01*
X123361904Y-149123809D02*
X122828571Y-149123809D01*
X122561904Y-149123809D02*
X122600000Y-149161904D01*
X122638095Y-149123809D01*
X122600000Y-149085714D01*
X122561904Y-149123809D01*
X122638095Y-149123809D01*
X122828571Y-148742857D02*
X123361904Y-148742857D01*
X122904761Y-148742857D02*
X122866666Y-148704761D01*
X122828571Y-148628571D01*
X122828571Y-148514285D01*
X122866666Y-148438095D01*
X122942857Y-148400000D01*
X123361904Y-148400000D01*
X123361904Y-147904761D02*
X123323809Y-147980952D01*
X123285714Y-148019047D01*
X123209523Y-148057142D01*
X122980952Y-148057142D01*
X122904761Y-148019047D01*
X122866666Y-147980952D01*
X122828571Y-147904761D01*
X122828571Y-147790476D01*
X122866666Y-147714285D01*
X122904761Y-147676190D01*
X122980952Y-147638095D01*
X123209523Y-147638095D01*
X123285714Y-147676190D01*
X123323809Y-147714285D01*
X123361904Y-147790476D01*
X123361904Y-147904761D01*
X122561904Y-147371428D02*
X123361904Y-146838095D01*
X122561904Y-146838095D02*
X123361904Y-147371428D01*
X123361904Y-146533333D02*
X122561904Y-146533333D01*
X123133333Y-146190476D02*
X123133333Y-145809523D01*
X123361904Y-146266666D02*
X122561904Y-146000000D01*
X123361904Y-145733333D01*
X122561904Y-145314285D02*
X122561904Y-145161904D01*
X122600000Y-145085714D01*
X122676190Y-145009523D01*
X122828571Y-144971428D01*
X123095238Y-144971428D01*
X123247619Y-145009523D01*
X123323809Y-145085714D01*
X123361904Y-145161904D01*
X123361904Y-145314285D01*
X123323809Y-145390476D01*
X123247619Y-145466666D01*
X123095238Y-145504761D01*
X122828571Y-145504761D01*
X122676190Y-145466666D01*
X122600000Y-145390476D01*
X122561904Y-145314285D01*
%TO.C,U2*%
X135061904Y-125859523D02*
X135709523Y-125859523D01*
X135785714Y-125821428D01*
X135823809Y-125783333D01*
X135861904Y-125707142D01*
X135861904Y-125554761D01*
X135823809Y-125478571D01*
X135785714Y-125440476D01*
X135709523Y-125402380D01*
X135061904Y-125402380D01*
X135138095Y-125059523D02*
X135100000Y-125021428D01*
X135061904Y-124945238D01*
X135061904Y-124754761D01*
X135100000Y-124678571D01*
X135138095Y-124640476D01*
X135214285Y-124602380D01*
X135290476Y-124602380D01*
X135404761Y-124640476D01*
X135861904Y-125097619D01*
X135861904Y-124602380D01*
X143761904Y-124852380D02*
X143761904Y-125233333D01*
X142961904Y-125233333D01*
X143761904Y-124585714D02*
X142961904Y-124585714D01*
X143533333Y-124319047D01*
X142961904Y-124052380D01*
X143761904Y-124052380D01*
X142961904Y-123747619D02*
X142961904Y-123252380D01*
X143266666Y-123519047D01*
X143266666Y-123404761D01*
X143304761Y-123328571D01*
X143342857Y-123290476D01*
X143419047Y-123252380D01*
X143609523Y-123252380D01*
X143685714Y-123290476D01*
X143723809Y-123328571D01*
X143761904Y-123404761D01*
X143761904Y-123633333D01*
X143723809Y-123709523D01*
X143685714Y-123747619D01*
X142961904Y-122528571D02*
X142961904Y-122909523D01*
X143342857Y-122947619D01*
X143304761Y-122909523D01*
X143266666Y-122833333D01*
X143266666Y-122642857D01*
X143304761Y-122566666D01*
X143342857Y-122528571D01*
X143419047Y-122490476D01*
X143609523Y-122490476D01*
X143685714Y-122528571D01*
X143723809Y-122566666D01*
X143761904Y-122642857D01*
X143761904Y-122833333D01*
X143723809Y-122909523D01*
X143685714Y-122947619D01*
X143304761Y-122033333D02*
X143266666Y-122109523D01*
X143228571Y-122147619D01*
X143152380Y-122185714D01*
X143114285Y-122185714D01*
X143038095Y-122147619D01*
X143000000Y-122109523D01*
X142961904Y-122033333D01*
X142961904Y-121880952D01*
X143000000Y-121804761D01*
X143038095Y-121766666D01*
X143114285Y-121728571D01*
X143152380Y-121728571D01*
X143228571Y-121766666D01*
X143266666Y-121804761D01*
X143304761Y-121880952D01*
X143304761Y-122033333D01*
X143342857Y-122109523D01*
X143380952Y-122147619D01*
X143457142Y-122185714D01*
X143609523Y-122185714D01*
X143685714Y-122147619D01*
X143723809Y-122109523D01*
X143761904Y-122033333D01*
X143761904Y-121880952D01*
X143723809Y-121804761D01*
X143685714Y-121766666D01*
X143609523Y-121728571D01*
X143457142Y-121728571D01*
X143380952Y-121766666D01*
X143342857Y-121804761D01*
X143304761Y-121880952D01*
%TO.C,R16*%
X133574214Y-128471904D02*
X133307547Y-128090952D01*
X133117071Y-128471904D02*
X133117071Y-127671904D01*
X133421833Y-127671904D01*
X133498023Y-127710000D01*
X133536119Y-127748095D01*
X133574214Y-127824285D01*
X133574214Y-127938571D01*
X133536119Y-128014761D01*
X133498023Y-128052857D01*
X133421833Y-128090952D01*
X133117071Y-128090952D01*
X134336119Y-128471904D02*
X133878976Y-128471904D01*
X134107547Y-128471904D02*
X134107547Y-127671904D01*
X134031357Y-127786190D01*
X133955166Y-127862380D01*
X133878976Y-127900476D01*
X135021833Y-127671904D02*
X134869452Y-127671904D01*
X134793261Y-127710000D01*
X134755166Y-127748095D01*
X134678976Y-127862380D01*
X134640880Y-128014761D01*
X134640880Y-128319523D01*
X134678976Y-128395714D01*
X134717071Y-128433809D01*
X134793261Y-128471904D01*
X134945642Y-128471904D01*
X135021833Y-128433809D01*
X135059928Y-128395714D01*
X135098023Y-128319523D01*
X135098023Y-128129047D01*
X135059928Y-128052857D01*
X135021833Y-128014761D01*
X134945642Y-127976666D01*
X134793261Y-127976666D01*
X134717071Y-128014761D01*
X134678976Y-128052857D01*
X134640880Y-128129047D01*
X133993261Y-131331904D02*
X133536119Y-131331904D01*
X133764690Y-131331904D02*
X133764690Y-130531904D01*
X133688500Y-130646190D01*
X133612309Y-130722380D01*
X133536119Y-130760476D01*
X134336119Y-131331904D02*
X134336119Y-130531904D01*
X134412309Y-131027142D02*
X134640880Y-131331904D01*
X134640880Y-130798571D02*
X134336119Y-131103333D01*
%TO.C,R15*%
X132485714Y-116931904D02*
X132219047Y-116550952D01*
X132028571Y-116931904D02*
X132028571Y-116131904D01*
X132333333Y-116131904D01*
X132409523Y-116170000D01*
X132447619Y-116208095D01*
X132485714Y-116284285D01*
X132485714Y-116398571D01*
X132447619Y-116474761D01*
X132409523Y-116512857D01*
X132333333Y-116550952D01*
X132028571Y-116550952D01*
X133247619Y-116931904D02*
X132790476Y-116931904D01*
X133019047Y-116931904D02*
X133019047Y-116131904D01*
X132942857Y-116246190D01*
X132866666Y-116322380D01*
X132790476Y-116360476D01*
X133971428Y-116131904D02*
X133590476Y-116131904D01*
X133552380Y-116512857D01*
X133590476Y-116474761D01*
X133666666Y-116436666D01*
X133857142Y-116436666D01*
X133933333Y-116474761D01*
X133971428Y-116512857D01*
X134009523Y-116589047D01*
X134009523Y-116779523D01*
X133971428Y-116855714D01*
X133933333Y-116893809D01*
X133857142Y-116931904D01*
X133666666Y-116931904D01*
X133590476Y-116893809D01*
X133552380Y-116855714D01*
X132904761Y-119791904D02*
X132447619Y-119791904D01*
X132676190Y-119791904D02*
X132676190Y-118991904D01*
X132600000Y-119106190D01*
X132523809Y-119182380D01*
X132447619Y-119220476D01*
X133247619Y-119791904D02*
X133247619Y-118991904D01*
X133323809Y-119487142D02*
X133552380Y-119791904D01*
X133552380Y-119258571D02*
X133247619Y-119563333D01*
%TO.C,R14*%
X138235714Y-128611904D02*
X137969047Y-128230952D01*
X137778571Y-128611904D02*
X137778571Y-127811904D01*
X138083333Y-127811904D01*
X138159523Y-127850000D01*
X138197619Y-127888095D01*
X138235714Y-127964285D01*
X138235714Y-128078571D01*
X138197619Y-128154761D01*
X138159523Y-128192857D01*
X138083333Y-128230952D01*
X137778571Y-128230952D01*
X138997619Y-128611904D02*
X138540476Y-128611904D01*
X138769047Y-128611904D02*
X138769047Y-127811904D01*
X138692857Y-127926190D01*
X138616666Y-128002380D01*
X138540476Y-128040476D01*
X139683333Y-128078571D02*
X139683333Y-128611904D01*
X139492857Y-127773809D02*
X139302380Y-128345238D01*
X139797619Y-128345238D01*
X140985714Y-129061904D02*
X140604761Y-129061904D01*
X140566666Y-129442857D01*
X140604761Y-129404761D01*
X140680952Y-129366666D01*
X140871428Y-129366666D01*
X140947619Y-129404761D01*
X140985714Y-129442857D01*
X141023809Y-129519047D01*
X141023809Y-129709523D01*
X140985714Y-129785714D01*
X140947619Y-129823809D01*
X140871428Y-129861904D01*
X140680952Y-129861904D01*
X140604761Y-129823809D01*
X140566666Y-129785714D01*
X141709523Y-129061904D02*
X141557142Y-129061904D01*
X141480952Y-129100000D01*
X141442857Y-129138095D01*
X141366666Y-129252380D01*
X141328571Y-129404761D01*
X141328571Y-129709523D01*
X141366666Y-129785714D01*
X141404761Y-129823809D01*
X141480952Y-129861904D01*
X141633333Y-129861904D01*
X141709523Y-129823809D01*
X141747619Y-129785714D01*
X141785714Y-129709523D01*
X141785714Y-129519047D01*
X141747619Y-129442857D01*
X141709523Y-129404761D01*
X141633333Y-129366666D01*
X141480952Y-129366666D01*
X141404761Y-129404761D01*
X141366666Y-129442857D01*
X141328571Y-129519047D01*
X142128571Y-129861904D02*
X142128571Y-129061904D01*
X142204761Y-129557142D02*
X142433333Y-129861904D01*
X142433333Y-129328571D02*
X142128571Y-129633333D01*
%TO.C,R13*%
X139585714Y-119561904D02*
X139319047Y-119180952D01*
X139128571Y-119561904D02*
X139128571Y-118761904D01*
X139433333Y-118761904D01*
X139509523Y-118800000D01*
X139547619Y-118838095D01*
X139585714Y-118914285D01*
X139585714Y-119028571D01*
X139547619Y-119104761D01*
X139509523Y-119142857D01*
X139433333Y-119180952D01*
X139128571Y-119180952D01*
X140347619Y-119561904D02*
X139890476Y-119561904D01*
X140119047Y-119561904D02*
X140119047Y-118761904D01*
X140042857Y-118876190D01*
X139966666Y-118952380D01*
X139890476Y-118990476D01*
X140614285Y-118761904D02*
X141109523Y-118761904D01*
X140842857Y-119066666D01*
X140957142Y-119066666D01*
X141033333Y-119104761D01*
X141071428Y-119142857D01*
X141109523Y-119219047D01*
X141109523Y-119409523D01*
X141071428Y-119485714D01*
X141033333Y-119523809D01*
X140957142Y-119561904D01*
X140728571Y-119561904D01*
X140652380Y-119523809D01*
X140614285Y-119485714D01*
X142485714Y-116861904D02*
X142104761Y-116861904D01*
X142066666Y-117242857D01*
X142104761Y-117204761D01*
X142180952Y-117166666D01*
X142371428Y-117166666D01*
X142447619Y-117204761D01*
X142485714Y-117242857D01*
X142523809Y-117319047D01*
X142523809Y-117509523D01*
X142485714Y-117585714D01*
X142447619Y-117623809D01*
X142371428Y-117661904D01*
X142180952Y-117661904D01*
X142104761Y-117623809D01*
X142066666Y-117585714D01*
X143209523Y-116861904D02*
X143057142Y-116861904D01*
X142980952Y-116900000D01*
X142942857Y-116938095D01*
X142866666Y-117052380D01*
X142828571Y-117204761D01*
X142828571Y-117509523D01*
X142866666Y-117585714D01*
X142904761Y-117623809D01*
X142980952Y-117661904D01*
X143133333Y-117661904D01*
X143209523Y-117623809D01*
X143247619Y-117585714D01*
X143285714Y-117509523D01*
X143285714Y-117319047D01*
X143247619Y-117242857D01*
X143209523Y-117204761D01*
X143133333Y-117166666D01*
X142980952Y-117166666D01*
X142904761Y-117204761D01*
X142866666Y-117242857D01*
X142828571Y-117319047D01*
X143628571Y-117661904D02*
X143628571Y-116861904D01*
X143704761Y-117357142D02*
X143933333Y-117661904D01*
X143933333Y-117128571D02*
X143628571Y-117433333D01*
%TO.C,R12*%
X138861904Y-136514285D02*
X138480952Y-136780952D01*
X138861904Y-136971428D02*
X138061904Y-136971428D01*
X138061904Y-136666666D01*
X138100000Y-136590476D01*
X138138095Y-136552380D01*
X138214285Y-136514285D01*
X138328571Y-136514285D01*
X138404761Y-136552380D01*
X138442857Y-136590476D01*
X138480952Y-136666666D01*
X138480952Y-136971428D01*
X138861904Y-135752380D02*
X138861904Y-136209523D01*
X138861904Y-135980952D02*
X138061904Y-135980952D01*
X138176190Y-136057142D01*
X138252380Y-136133333D01*
X138290476Y-136209523D01*
X138138095Y-135447619D02*
X138100000Y-135409523D01*
X138061904Y-135333333D01*
X138061904Y-135142857D01*
X138100000Y-135066666D01*
X138138095Y-135028571D01*
X138214285Y-134990476D01*
X138290476Y-134990476D01*
X138404761Y-135028571D01*
X138861904Y-135485714D01*
X138861904Y-134990476D01*
X141361904Y-139476190D02*
X141361904Y-139933333D01*
X141361904Y-139704761D02*
X140561904Y-139704761D01*
X140676190Y-139780952D01*
X140752380Y-139857142D01*
X140790476Y-139933333D01*
X140561904Y-138980952D02*
X140561904Y-138904761D01*
X140600000Y-138828571D01*
X140638095Y-138790476D01*
X140714285Y-138752380D01*
X140866666Y-138714285D01*
X141057142Y-138714285D01*
X141209523Y-138752380D01*
X141285714Y-138790476D01*
X141323809Y-138828571D01*
X141361904Y-138904761D01*
X141361904Y-138980952D01*
X141323809Y-139057142D01*
X141285714Y-139095238D01*
X141209523Y-139133333D01*
X141057142Y-139171428D01*
X140866666Y-139171428D01*
X140714285Y-139133333D01*
X140638095Y-139095238D01*
X140600000Y-139057142D01*
X140561904Y-138980952D01*
X141361904Y-138371428D02*
X140561904Y-138371428D01*
X141057142Y-138295238D02*
X141361904Y-138066666D01*
X140828571Y-138066666D02*
X141133333Y-138371428D01*
%TO.C,R11*%
X138235714Y-132861904D02*
X137969047Y-132480952D01*
X137778571Y-132861904D02*
X137778571Y-132061904D01*
X138083333Y-132061904D01*
X138159523Y-132100000D01*
X138197619Y-132138095D01*
X138235714Y-132214285D01*
X138235714Y-132328571D01*
X138197619Y-132404761D01*
X138159523Y-132442857D01*
X138083333Y-132480952D01*
X137778571Y-132480952D01*
X138997619Y-132861904D02*
X138540476Y-132861904D01*
X138769047Y-132861904D02*
X138769047Y-132061904D01*
X138692857Y-132176190D01*
X138616666Y-132252380D01*
X138540476Y-132290476D01*
X139759523Y-132861904D02*
X139302380Y-132861904D01*
X139530952Y-132861904D02*
X139530952Y-132061904D01*
X139454761Y-132176190D01*
X139378571Y-132252380D01*
X139302380Y-132290476D01*
X140528571Y-130561904D02*
X141023809Y-130561904D01*
X140757142Y-130866666D01*
X140871428Y-130866666D01*
X140947619Y-130904761D01*
X140985714Y-130942857D01*
X141023809Y-131019047D01*
X141023809Y-131209523D01*
X140985714Y-131285714D01*
X140947619Y-131323809D01*
X140871428Y-131361904D01*
X140642857Y-131361904D01*
X140566666Y-131323809D01*
X140528571Y-131285714D01*
X141404761Y-131361904D02*
X141557142Y-131361904D01*
X141633333Y-131323809D01*
X141671428Y-131285714D01*
X141747619Y-131171428D01*
X141785714Y-131019047D01*
X141785714Y-130714285D01*
X141747619Y-130638095D01*
X141709523Y-130600000D01*
X141633333Y-130561904D01*
X141480952Y-130561904D01*
X141404761Y-130600000D01*
X141366666Y-130638095D01*
X141328571Y-130714285D01*
X141328571Y-130904761D01*
X141366666Y-130980952D01*
X141404761Y-131019047D01*
X141480952Y-131057142D01*
X141633333Y-131057142D01*
X141709523Y-131019047D01*
X141747619Y-130980952D01*
X141785714Y-130904761D01*
X142128571Y-131361904D02*
X142128571Y-130561904D01*
X142204761Y-131057142D02*
X142433333Y-131361904D01*
X142433333Y-130828571D02*
X142128571Y-131133333D01*
%TO.C,R10*%
X140111904Y-136514285D02*
X139730952Y-136780952D01*
X140111904Y-136971428D02*
X139311904Y-136971428D01*
X139311904Y-136666666D01*
X139350000Y-136590476D01*
X139388095Y-136552380D01*
X139464285Y-136514285D01*
X139578571Y-136514285D01*
X139654761Y-136552380D01*
X139692857Y-136590476D01*
X139730952Y-136666666D01*
X139730952Y-136971428D01*
X140111904Y-135752380D02*
X140111904Y-136209523D01*
X140111904Y-135980952D02*
X139311904Y-135980952D01*
X139426190Y-136057142D01*
X139502380Y-136133333D01*
X139540476Y-136209523D01*
X139311904Y-135257142D02*
X139311904Y-135180952D01*
X139350000Y-135104761D01*
X139388095Y-135066666D01*
X139464285Y-135028571D01*
X139616666Y-134990476D01*
X139807142Y-134990476D01*
X139959523Y-135028571D01*
X140035714Y-135066666D01*
X140073809Y-135104761D01*
X140111904Y-135180952D01*
X140111904Y-135257142D01*
X140073809Y-135333333D01*
X140035714Y-135371428D01*
X139959523Y-135409523D01*
X139807142Y-135447619D01*
X139616666Y-135447619D01*
X139464285Y-135409523D01*
X139388095Y-135371428D01*
X139350000Y-135333333D01*
X139311904Y-135257142D01*
X143361904Y-139476190D02*
X143361904Y-139933333D01*
X143361904Y-139704761D02*
X142561904Y-139704761D01*
X142676190Y-139780952D01*
X142752380Y-139857142D01*
X142790476Y-139933333D01*
X142561904Y-138980952D02*
X142561904Y-138904761D01*
X142600000Y-138828571D01*
X142638095Y-138790476D01*
X142714285Y-138752380D01*
X142866666Y-138714285D01*
X143057142Y-138714285D01*
X143209523Y-138752380D01*
X143285714Y-138790476D01*
X143323809Y-138828571D01*
X143361904Y-138904761D01*
X143361904Y-138980952D01*
X143323809Y-139057142D01*
X143285714Y-139095238D01*
X143209523Y-139133333D01*
X143057142Y-139171428D01*
X142866666Y-139171428D01*
X142714285Y-139133333D01*
X142638095Y-139095238D01*
X142600000Y-139057142D01*
X142561904Y-138980952D01*
X143361904Y-138371428D02*
X142561904Y-138371428D01*
X143057142Y-138295238D02*
X143361904Y-138066666D01*
X142828571Y-138066666D02*
X143133333Y-138371428D01*
%TO.C,R9*%
X139966666Y-115611904D02*
X139700000Y-115230952D01*
X139509523Y-115611904D02*
X139509523Y-114811904D01*
X139814285Y-114811904D01*
X139890476Y-114850000D01*
X139928571Y-114888095D01*
X139966666Y-114964285D01*
X139966666Y-115078571D01*
X139928571Y-115154761D01*
X139890476Y-115192857D01*
X139814285Y-115230952D01*
X139509523Y-115230952D01*
X140347619Y-115611904D02*
X140500000Y-115611904D01*
X140576190Y-115573809D01*
X140614285Y-115535714D01*
X140690476Y-115421428D01*
X140728571Y-115269047D01*
X140728571Y-114964285D01*
X140690476Y-114888095D01*
X140652380Y-114850000D01*
X140576190Y-114811904D01*
X140423809Y-114811904D01*
X140347619Y-114850000D01*
X140309523Y-114888095D01*
X140271428Y-114964285D01*
X140271428Y-115154761D01*
X140309523Y-115230952D01*
X140347619Y-115269047D01*
X140423809Y-115307142D01*
X140576190Y-115307142D01*
X140652380Y-115269047D01*
X140690476Y-115230952D01*
X140728571Y-115154761D01*
X142028571Y-115811904D02*
X142523809Y-115811904D01*
X142257142Y-116116666D01*
X142371428Y-116116666D01*
X142447619Y-116154761D01*
X142485714Y-116192857D01*
X142523809Y-116269047D01*
X142523809Y-116459523D01*
X142485714Y-116535714D01*
X142447619Y-116573809D01*
X142371428Y-116611904D01*
X142142857Y-116611904D01*
X142066666Y-116573809D01*
X142028571Y-116535714D01*
X142904761Y-116611904D02*
X143057142Y-116611904D01*
X143133333Y-116573809D01*
X143171428Y-116535714D01*
X143247619Y-116421428D01*
X143285714Y-116269047D01*
X143285714Y-115964285D01*
X143247619Y-115888095D01*
X143209523Y-115850000D01*
X143133333Y-115811904D01*
X142980952Y-115811904D01*
X142904761Y-115850000D01*
X142866666Y-115888095D01*
X142828571Y-115964285D01*
X142828571Y-116154761D01*
X142866666Y-116230952D01*
X142904761Y-116269047D01*
X142980952Y-116307142D01*
X143133333Y-116307142D01*
X143209523Y-116269047D01*
X143247619Y-116230952D01*
X143285714Y-116154761D01*
X143628571Y-116611904D02*
X143628571Y-115811904D01*
X143704761Y-116307142D02*
X143933333Y-116611904D01*
X143933333Y-116078571D02*
X143628571Y-116383333D01*
%TO.C,R8*%
X124616666Y-104361904D02*
X124350000Y-103980952D01*
X124159523Y-104361904D02*
X124159523Y-103561904D01*
X124464285Y-103561904D01*
X124540476Y-103600000D01*
X124578571Y-103638095D01*
X124616666Y-103714285D01*
X124616666Y-103828571D01*
X124578571Y-103904761D01*
X124540476Y-103942857D01*
X124464285Y-103980952D01*
X124159523Y-103980952D01*
X125073809Y-103904761D02*
X124997619Y-103866666D01*
X124959523Y-103828571D01*
X124921428Y-103752380D01*
X124921428Y-103714285D01*
X124959523Y-103638095D01*
X124997619Y-103600000D01*
X125073809Y-103561904D01*
X125226190Y-103561904D01*
X125302380Y-103600000D01*
X125340476Y-103638095D01*
X125378571Y-103714285D01*
X125378571Y-103752380D01*
X125340476Y-103828571D01*
X125302380Y-103866666D01*
X125226190Y-103904761D01*
X125073809Y-103904761D01*
X124997619Y-103942857D01*
X124959523Y-103980952D01*
X124921428Y-104057142D01*
X124921428Y-104209523D01*
X124959523Y-104285714D01*
X124997619Y-104323809D01*
X125073809Y-104361904D01*
X125226190Y-104361904D01*
X125302380Y-104323809D01*
X125340476Y-104285714D01*
X125378571Y-104209523D01*
X125378571Y-104057142D01*
X125340476Y-103980952D01*
X125302380Y-103942857D01*
X125226190Y-103904761D01*
X116892857Y-104361904D02*
X116435714Y-104361904D01*
X116664285Y-104361904D02*
X116664285Y-103561904D01*
X116588095Y-103676190D01*
X116511904Y-103752380D01*
X116435714Y-103790476D01*
X117388095Y-103561904D02*
X117464285Y-103561904D01*
X117540476Y-103600000D01*
X117578571Y-103638095D01*
X117616666Y-103714285D01*
X117654761Y-103866666D01*
X117654761Y-104057142D01*
X117616666Y-104209523D01*
X117578571Y-104285714D01*
X117540476Y-104323809D01*
X117464285Y-104361904D01*
X117388095Y-104361904D01*
X117311904Y-104323809D01*
X117273809Y-104285714D01*
X117235714Y-104209523D01*
X117197619Y-104057142D01*
X117197619Y-103866666D01*
X117235714Y-103714285D01*
X117273809Y-103638095D01*
X117311904Y-103600000D01*
X117388095Y-103561904D01*
X118150000Y-103561904D02*
X118226190Y-103561904D01*
X118302380Y-103600000D01*
X118340476Y-103638095D01*
X118378571Y-103714285D01*
X118416666Y-103866666D01*
X118416666Y-104057142D01*
X118378571Y-104209523D01*
X118340476Y-104285714D01*
X118302380Y-104323809D01*
X118226190Y-104361904D01*
X118150000Y-104361904D01*
X118073809Y-104323809D01*
X118035714Y-104285714D01*
X117997619Y-104209523D01*
X117959523Y-104057142D01*
X117959523Y-103866666D01*
X117997619Y-103714285D01*
X118035714Y-103638095D01*
X118073809Y-103600000D01*
X118150000Y-103561904D01*
X118759523Y-104361904D02*
X118759523Y-103561904D01*
X118835714Y-104057142D02*
X119064285Y-104361904D01*
X119064285Y-103828571D02*
X118759523Y-104133333D01*
%TO.C,R7*%
X134861904Y-86133333D02*
X134480952Y-86400000D01*
X134861904Y-86590476D02*
X134061904Y-86590476D01*
X134061904Y-86285714D01*
X134100000Y-86209523D01*
X134138095Y-86171428D01*
X134214285Y-86133333D01*
X134328571Y-86133333D01*
X134404761Y-86171428D01*
X134442857Y-86209523D01*
X134480952Y-86285714D01*
X134480952Y-86590476D01*
X134061904Y-85866666D02*
X134061904Y-85333333D01*
X134861904Y-85676190D01*
X134861904Y-93607142D02*
X134861904Y-94064285D01*
X134861904Y-93835714D02*
X134061904Y-93835714D01*
X134176190Y-93911904D01*
X134252380Y-93988095D01*
X134290476Y-94064285D01*
X134061904Y-93111904D02*
X134061904Y-93035714D01*
X134100000Y-92959523D01*
X134138095Y-92921428D01*
X134214285Y-92883333D01*
X134366666Y-92845238D01*
X134557142Y-92845238D01*
X134709523Y-92883333D01*
X134785714Y-92921428D01*
X134823809Y-92959523D01*
X134861904Y-93035714D01*
X134861904Y-93111904D01*
X134823809Y-93188095D01*
X134785714Y-93226190D01*
X134709523Y-93264285D01*
X134557142Y-93302380D01*
X134366666Y-93302380D01*
X134214285Y-93264285D01*
X134138095Y-93226190D01*
X134100000Y-93188095D01*
X134061904Y-93111904D01*
X134061904Y-92350000D02*
X134061904Y-92273809D01*
X134100000Y-92197619D01*
X134138095Y-92159523D01*
X134214285Y-92121428D01*
X134366666Y-92083333D01*
X134557142Y-92083333D01*
X134709523Y-92121428D01*
X134785714Y-92159523D01*
X134823809Y-92197619D01*
X134861904Y-92273809D01*
X134861904Y-92350000D01*
X134823809Y-92426190D01*
X134785714Y-92464285D01*
X134709523Y-92502380D01*
X134557142Y-92540476D01*
X134366666Y-92540476D01*
X134214285Y-92502380D01*
X134138095Y-92464285D01*
X134100000Y-92426190D01*
X134061904Y-92350000D01*
X134861904Y-91740476D02*
X134061904Y-91740476D01*
X134557142Y-91664285D02*
X134861904Y-91435714D01*
X134328571Y-91435714D02*
X134633333Y-91740476D01*
%TO.C,R6*%
X134861904Y-84633333D02*
X134480952Y-84900000D01*
X134861904Y-85090476D02*
X134061904Y-85090476D01*
X134061904Y-84785714D01*
X134100000Y-84709523D01*
X134138095Y-84671428D01*
X134214285Y-84633333D01*
X134328571Y-84633333D01*
X134404761Y-84671428D01*
X134442857Y-84709523D01*
X134480952Y-84785714D01*
X134480952Y-85090476D01*
X134061904Y-83947619D02*
X134061904Y-84100000D01*
X134100000Y-84176190D01*
X134138095Y-84214285D01*
X134252380Y-84290476D01*
X134404761Y-84328571D01*
X134709523Y-84328571D01*
X134785714Y-84290476D01*
X134823809Y-84252380D01*
X134861904Y-84176190D01*
X134861904Y-84023809D01*
X134823809Y-83947619D01*
X134785714Y-83909523D01*
X134709523Y-83871428D01*
X134519047Y-83871428D01*
X134442857Y-83909523D01*
X134404761Y-83947619D01*
X134366666Y-84023809D01*
X134366666Y-84176190D01*
X134404761Y-84252380D01*
X134442857Y-84290476D01*
X134519047Y-84328571D01*
X134861904Y-79607142D02*
X134861904Y-80064285D01*
X134861904Y-79835714D02*
X134061904Y-79835714D01*
X134176190Y-79911904D01*
X134252380Y-79988095D01*
X134290476Y-80064285D01*
X134061904Y-79111904D02*
X134061904Y-79035714D01*
X134100000Y-78959523D01*
X134138095Y-78921428D01*
X134214285Y-78883333D01*
X134366666Y-78845238D01*
X134557142Y-78845238D01*
X134709523Y-78883333D01*
X134785714Y-78921428D01*
X134823809Y-78959523D01*
X134861904Y-79035714D01*
X134861904Y-79111904D01*
X134823809Y-79188095D01*
X134785714Y-79226190D01*
X134709523Y-79264285D01*
X134557142Y-79302380D01*
X134366666Y-79302380D01*
X134214285Y-79264285D01*
X134138095Y-79226190D01*
X134100000Y-79188095D01*
X134061904Y-79111904D01*
X134061904Y-78350000D02*
X134061904Y-78273809D01*
X134100000Y-78197619D01*
X134138095Y-78159523D01*
X134214285Y-78121428D01*
X134366666Y-78083333D01*
X134557142Y-78083333D01*
X134709523Y-78121428D01*
X134785714Y-78159523D01*
X134823809Y-78197619D01*
X134861904Y-78273809D01*
X134861904Y-78350000D01*
X134823809Y-78426190D01*
X134785714Y-78464285D01*
X134709523Y-78502380D01*
X134557142Y-78540476D01*
X134366666Y-78540476D01*
X134214285Y-78502380D01*
X134138095Y-78464285D01*
X134100000Y-78426190D01*
X134061904Y-78350000D01*
X134861904Y-77740476D02*
X134061904Y-77740476D01*
X134557142Y-77664285D02*
X134861904Y-77435714D01*
X134328571Y-77435714D02*
X134633333Y-77740476D01*
%TO.C,R5*%
X135861904Y-72033333D02*
X135480952Y-72300000D01*
X135861904Y-72490476D02*
X135061904Y-72490476D01*
X135061904Y-72185714D01*
X135100000Y-72109523D01*
X135138095Y-72071428D01*
X135214285Y-72033333D01*
X135328571Y-72033333D01*
X135404761Y-72071428D01*
X135442857Y-72109523D01*
X135480952Y-72185714D01*
X135480952Y-72490476D01*
X135061904Y-71309523D02*
X135061904Y-71690476D01*
X135442857Y-71728571D01*
X135404761Y-71690476D01*
X135366666Y-71614285D01*
X135366666Y-71423809D01*
X135404761Y-71347619D01*
X135442857Y-71309523D01*
X135519047Y-71271428D01*
X135709523Y-71271428D01*
X135785714Y-71309523D01*
X135823809Y-71347619D01*
X135861904Y-71423809D01*
X135861904Y-71614285D01*
X135823809Y-71690476D01*
X135785714Y-71728571D01*
X133061904Y-75257142D02*
X133061904Y-75714285D01*
X133061904Y-75485714D02*
X132261904Y-75485714D01*
X132376190Y-75561904D01*
X132452380Y-75638095D01*
X132490476Y-75714285D01*
X132261904Y-74761904D02*
X132261904Y-74685714D01*
X132300000Y-74609523D01*
X132338095Y-74571428D01*
X132414285Y-74533333D01*
X132566666Y-74495238D01*
X132757142Y-74495238D01*
X132909523Y-74533333D01*
X132985714Y-74571428D01*
X133023809Y-74609523D01*
X133061904Y-74685714D01*
X133061904Y-74761904D01*
X133023809Y-74838095D01*
X132985714Y-74876190D01*
X132909523Y-74914285D01*
X132757142Y-74952380D01*
X132566666Y-74952380D01*
X132414285Y-74914285D01*
X132338095Y-74876190D01*
X132300000Y-74838095D01*
X132261904Y-74761904D01*
X132261904Y-74000000D02*
X132261904Y-73923809D01*
X132300000Y-73847619D01*
X132338095Y-73809523D01*
X132414285Y-73771428D01*
X132566666Y-73733333D01*
X132757142Y-73733333D01*
X132909523Y-73771428D01*
X132985714Y-73809523D01*
X133023809Y-73847619D01*
X133061904Y-73923809D01*
X133061904Y-74000000D01*
X133023809Y-74076190D01*
X132985714Y-74114285D01*
X132909523Y-74152380D01*
X132757142Y-74190476D01*
X132566666Y-74190476D01*
X132414285Y-74152380D01*
X132338095Y-74114285D01*
X132300000Y-74076190D01*
X132261904Y-74000000D01*
X133061904Y-73390476D02*
X132261904Y-73390476D01*
X132757142Y-73314285D02*
X133061904Y-73085714D01*
X132528571Y-73085714D02*
X132833333Y-73390476D01*
%TO.C,R4*%
X123616666Y-102861904D02*
X123350000Y-102480952D01*
X123159523Y-102861904D02*
X123159523Y-102061904D01*
X123464285Y-102061904D01*
X123540476Y-102100000D01*
X123578571Y-102138095D01*
X123616666Y-102214285D01*
X123616666Y-102328571D01*
X123578571Y-102404761D01*
X123540476Y-102442857D01*
X123464285Y-102480952D01*
X123159523Y-102480952D01*
X124302380Y-102328571D02*
X124302380Y-102861904D01*
X124111904Y-102023809D02*
X123921428Y-102595238D01*
X124416666Y-102595238D01*
X116892857Y-103361904D02*
X116435714Y-103361904D01*
X116664285Y-103361904D02*
X116664285Y-102561904D01*
X116588095Y-102676190D01*
X116511904Y-102752380D01*
X116435714Y-102790476D01*
X117388095Y-102561904D02*
X117464285Y-102561904D01*
X117540476Y-102600000D01*
X117578571Y-102638095D01*
X117616666Y-102714285D01*
X117654761Y-102866666D01*
X117654761Y-103057142D01*
X117616666Y-103209523D01*
X117578571Y-103285714D01*
X117540476Y-103323809D01*
X117464285Y-103361904D01*
X117388095Y-103361904D01*
X117311904Y-103323809D01*
X117273809Y-103285714D01*
X117235714Y-103209523D01*
X117197619Y-103057142D01*
X117197619Y-102866666D01*
X117235714Y-102714285D01*
X117273809Y-102638095D01*
X117311904Y-102600000D01*
X117388095Y-102561904D01*
X118150000Y-102561904D02*
X118226190Y-102561904D01*
X118302380Y-102600000D01*
X118340476Y-102638095D01*
X118378571Y-102714285D01*
X118416666Y-102866666D01*
X118416666Y-103057142D01*
X118378571Y-103209523D01*
X118340476Y-103285714D01*
X118302380Y-103323809D01*
X118226190Y-103361904D01*
X118150000Y-103361904D01*
X118073809Y-103323809D01*
X118035714Y-103285714D01*
X117997619Y-103209523D01*
X117959523Y-103057142D01*
X117959523Y-102866666D01*
X117997619Y-102714285D01*
X118035714Y-102638095D01*
X118073809Y-102600000D01*
X118150000Y-102561904D01*
X118759523Y-103361904D02*
X118759523Y-102561904D01*
X118835714Y-103057142D02*
X119064285Y-103361904D01*
X119064285Y-102828571D02*
X118759523Y-103133333D01*
%TO.C,R3*%
X133361904Y-86133333D02*
X132980952Y-86400000D01*
X133361904Y-86590476D02*
X132561904Y-86590476D01*
X132561904Y-86285714D01*
X132600000Y-86209523D01*
X132638095Y-86171428D01*
X132714285Y-86133333D01*
X132828571Y-86133333D01*
X132904761Y-86171428D01*
X132942857Y-86209523D01*
X132980952Y-86285714D01*
X132980952Y-86590476D01*
X132561904Y-85866666D02*
X132561904Y-85371428D01*
X132866666Y-85638095D01*
X132866666Y-85523809D01*
X132904761Y-85447619D01*
X132942857Y-85409523D01*
X133019047Y-85371428D01*
X133209523Y-85371428D01*
X133285714Y-85409523D01*
X133323809Y-85447619D01*
X133361904Y-85523809D01*
X133361904Y-85752380D01*
X133323809Y-85828571D01*
X133285714Y-85866666D01*
X133361904Y-93607142D02*
X133361904Y-94064285D01*
X133361904Y-93835714D02*
X132561904Y-93835714D01*
X132676190Y-93911904D01*
X132752380Y-93988095D01*
X132790476Y-94064285D01*
X132561904Y-93111904D02*
X132561904Y-93035714D01*
X132600000Y-92959523D01*
X132638095Y-92921428D01*
X132714285Y-92883333D01*
X132866666Y-92845238D01*
X133057142Y-92845238D01*
X133209523Y-92883333D01*
X133285714Y-92921428D01*
X133323809Y-92959523D01*
X133361904Y-93035714D01*
X133361904Y-93111904D01*
X133323809Y-93188095D01*
X133285714Y-93226190D01*
X133209523Y-93264285D01*
X133057142Y-93302380D01*
X132866666Y-93302380D01*
X132714285Y-93264285D01*
X132638095Y-93226190D01*
X132600000Y-93188095D01*
X132561904Y-93111904D01*
X132561904Y-92350000D02*
X132561904Y-92273809D01*
X132600000Y-92197619D01*
X132638095Y-92159523D01*
X132714285Y-92121428D01*
X132866666Y-92083333D01*
X133057142Y-92083333D01*
X133209523Y-92121428D01*
X133285714Y-92159523D01*
X133323809Y-92197619D01*
X133361904Y-92273809D01*
X133361904Y-92350000D01*
X133323809Y-92426190D01*
X133285714Y-92464285D01*
X133209523Y-92502380D01*
X133057142Y-92540476D01*
X132866666Y-92540476D01*
X132714285Y-92502380D01*
X132638095Y-92464285D01*
X132600000Y-92426190D01*
X132561904Y-92350000D01*
X133361904Y-91740476D02*
X132561904Y-91740476D01*
X133057142Y-91664285D02*
X133361904Y-91435714D01*
X132828571Y-91435714D02*
X133133333Y-91740476D01*
%TO.C,R2*%
X133361904Y-84633333D02*
X132980952Y-84900000D01*
X133361904Y-85090476D02*
X132561904Y-85090476D01*
X132561904Y-84785714D01*
X132600000Y-84709523D01*
X132638095Y-84671428D01*
X132714285Y-84633333D01*
X132828571Y-84633333D01*
X132904761Y-84671428D01*
X132942857Y-84709523D01*
X132980952Y-84785714D01*
X132980952Y-85090476D01*
X132638095Y-84328571D02*
X132600000Y-84290476D01*
X132561904Y-84214285D01*
X132561904Y-84023809D01*
X132600000Y-83947619D01*
X132638095Y-83909523D01*
X132714285Y-83871428D01*
X132790476Y-83871428D01*
X132904761Y-83909523D01*
X133361904Y-84366666D01*
X133361904Y-83871428D01*
X133361904Y-79607142D02*
X133361904Y-80064285D01*
X133361904Y-79835714D02*
X132561904Y-79835714D01*
X132676190Y-79911904D01*
X132752380Y-79988095D01*
X132790476Y-80064285D01*
X132561904Y-79111904D02*
X132561904Y-79035714D01*
X132600000Y-78959523D01*
X132638095Y-78921428D01*
X132714285Y-78883333D01*
X132866666Y-78845238D01*
X133057142Y-78845238D01*
X133209523Y-78883333D01*
X133285714Y-78921428D01*
X133323809Y-78959523D01*
X133361904Y-79035714D01*
X133361904Y-79111904D01*
X133323809Y-79188095D01*
X133285714Y-79226190D01*
X133209523Y-79264285D01*
X133057142Y-79302380D01*
X132866666Y-79302380D01*
X132714285Y-79264285D01*
X132638095Y-79226190D01*
X132600000Y-79188095D01*
X132561904Y-79111904D01*
X132561904Y-78350000D02*
X132561904Y-78273809D01*
X132600000Y-78197619D01*
X132638095Y-78159523D01*
X132714285Y-78121428D01*
X132866666Y-78083333D01*
X133057142Y-78083333D01*
X133209523Y-78121428D01*
X133285714Y-78159523D01*
X133323809Y-78197619D01*
X133361904Y-78273809D01*
X133361904Y-78350000D01*
X133323809Y-78426190D01*
X133285714Y-78464285D01*
X133209523Y-78502380D01*
X133057142Y-78540476D01*
X132866666Y-78540476D01*
X132714285Y-78502380D01*
X132638095Y-78464285D01*
X132600000Y-78426190D01*
X132561904Y-78350000D01*
X133361904Y-77740476D02*
X132561904Y-77740476D01*
X133057142Y-77664285D02*
X133361904Y-77435714D01*
X132828571Y-77435714D02*
X133133333Y-77740476D01*
%TO.C,R1*%
X134361904Y-72033333D02*
X133980952Y-72300000D01*
X134361904Y-72490476D02*
X133561904Y-72490476D01*
X133561904Y-72185714D01*
X133600000Y-72109523D01*
X133638095Y-72071428D01*
X133714285Y-72033333D01*
X133828571Y-72033333D01*
X133904761Y-72071428D01*
X133942857Y-72109523D01*
X133980952Y-72185714D01*
X133980952Y-72490476D01*
X134361904Y-71271428D02*
X134361904Y-71728571D01*
X134361904Y-71500000D02*
X133561904Y-71500000D01*
X133676190Y-71576190D01*
X133752380Y-71652380D01*
X133790476Y-71728571D01*
X131961904Y-75257142D02*
X131961904Y-75714285D01*
X131961904Y-75485714D02*
X131161904Y-75485714D01*
X131276190Y-75561904D01*
X131352380Y-75638095D01*
X131390476Y-75714285D01*
X131161904Y-74761904D02*
X131161904Y-74685714D01*
X131200000Y-74609523D01*
X131238095Y-74571428D01*
X131314285Y-74533333D01*
X131466666Y-74495238D01*
X131657142Y-74495238D01*
X131809523Y-74533333D01*
X131885714Y-74571428D01*
X131923809Y-74609523D01*
X131961904Y-74685714D01*
X131961904Y-74761904D01*
X131923809Y-74838095D01*
X131885714Y-74876190D01*
X131809523Y-74914285D01*
X131657142Y-74952380D01*
X131466666Y-74952380D01*
X131314285Y-74914285D01*
X131238095Y-74876190D01*
X131200000Y-74838095D01*
X131161904Y-74761904D01*
X131161904Y-74000000D02*
X131161904Y-73923809D01*
X131200000Y-73847619D01*
X131238095Y-73809523D01*
X131314285Y-73771428D01*
X131466666Y-73733333D01*
X131657142Y-73733333D01*
X131809523Y-73771428D01*
X131885714Y-73809523D01*
X131923809Y-73847619D01*
X131961904Y-73923809D01*
X131961904Y-74000000D01*
X131923809Y-74076190D01*
X131885714Y-74114285D01*
X131809523Y-74152380D01*
X131657142Y-74190476D01*
X131466666Y-74190476D01*
X131314285Y-74152380D01*
X131238095Y-74114285D01*
X131200000Y-74076190D01*
X131161904Y-74000000D01*
X131961904Y-73390476D02*
X131161904Y-73390476D01*
X131657142Y-73314285D02*
X131961904Y-73085714D01*
X131428571Y-73085714D02*
X131733333Y-73390476D01*
%TO.C,Q4*%
X119423809Y-136438095D02*
X119347619Y-136400000D01*
X119271428Y-136323809D01*
X119157142Y-136209523D01*
X119080952Y-136171428D01*
X119004761Y-136171428D01*
X119042857Y-136361904D02*
X118966666Y-136323809D01*
X118890476Y-136247619D01*
X118852380Y-136095238D01*
X118852380Y-135828571D01*
X118890476Y-135676190D01*
X118966666Y-135600000D01*
X119042857Y-135561904D01*
X119195238Y-135561904D01*
X119271428Y-135600000D01*
X119347619Y-135676190D01*
X119385714Y-135828571D01*
X119385714Y-136095238D01*
X119347619Y-136247619D01*
X119271428Y-136323809D01*
X119195238Y-136361904D01*
X119042857Y-136361904D01*
X120071428Y-135828571D02*
X120071428Y-136361904D01*
X119880952Y-135523809D02*
X119690476Y-136095238D01*
X120185714Y-136095238D01*
X119047619Y-134111904D02*
X119047619Y-133311904D01*
X119314285Y-133883333D01*
X119580952Y-133311904D01*
X119580952Y-134111904D01*
X119961904Y-134111904D02*
X119961904Y-133311904D01*
X120228571Y-133883333D01*
X120495238Y-133311904D01*
X120495238Y-134111904D01*
X121142857Y-133692857D02*
X121257142Y-133730952D01*
X121295238Y-133769047D01*
X121333333Y-133845238D01*
X121333333Y-133959523D01*
X121295238Y-134035714D01*
X121257142Y-134073809D01*
X121180952Y-134111904D01*
X120876190Y-134111904D01*
X120876190Y-133311904D01*
X121142857Y-133311904D01*
X121219047Y-133350000D01*
X121257142Y-133388095D01*
X121295238Y-133464285D01*
X121295238Y-133540476D01*
X121257142Y-133616666D01*
X121219047Y-133654761D01*
X121142857Y-133692857D01*
X120876190Y-133692857D01*
X121561904Y-133311904D02*
X122019047Y-133311904D01*
X121790476Y-134111904D02*
X121790476Y-133311904D01*
X122209523Y-133311904D02*
X122704761Y-133311904D01*
X122438095Y-133616666D01*
X122552380Y-133616666D01*
X122628571Y-133654761D01*
X122666666Y-133692857D01*
X122704761Y-133769047D01*
X122704761Y-133959523D01*
X122666666Y-134035714D01*
X122628571Y-134073809D01*
X122552380Y-134111904D01*
X122323809Y-134111904D01*
X122247619Y-134073809D01*
X122209523Y-134035714D01*
X123085714Y-134111904D02*
X123238095Y-134111904D01*
X123314285Y-134073809D01*
X123352380Y-134035714D01*
X123428571Y-133921428D01*
X123466666Y-133769047D01*
X123466666Y-133464285D01*
X123428571Y-133388095D01*
X123390476Y-133350000D01*
X123314285Y-133311904D01*
X123161904Y-133311904D01*
X123085714Y-133350000D01*
X123047619Y-133388095D01*
X123009523Y-133464285D01*
X123009523Y-133654761D01*
X123047619Y-133730952D01*
X123085714Y-133769047D01*
X123161904Y-133807142D01*
X123314285Y-133807142D01*
X123390476Y-133769047D01*
X123428571Y-133730952D01*
X123466666Y-133654761D01*
X123961904Y-133311904D02*
X124038095Y-133311904D01*
X124114285Y-133350000D01*
X124152380Y-133388095D01*
X124190476Y-133464285D01*
X124228571Y-133616666D01*
X124228571Y-133807142D01*
X124190476Y-133959523D01*
X124152380Y-134035714D01*
X124114285Y-134073809D01*
X124038095Y-134111904D01*
X123961904Y-134111904D01*
X123885714Y-134073809D01*
X123847619Y-134035714D01*
X123809523Y-133959523D01*
X123771428Y-133807142D01*
X123771428Y-133616666D01*
X123809523Y-133464285D01*
X123847619Y-133388095D01*
X123885714Y-133350000D01*
X123961904Y-133311904D01*
X124914285Y-133578571D02*
X124914285Y-134111904D01*
X124723809Y-133273809D02*
X124533333Y-133845238D01*
X125028571Y-133845238D01*
%TO.C,Q3*%
X127423809Y-138938095D02*
X127347619Y-138900000D01*
X127271428Y-138823809D01*
X127157142Y-138709523D01*
X127080952Y-138671428D01*
X127004761Y-138671428D01*
X127042857Y-138861904D02*
X126966666Y-138823809D01*
X126890476Y-138747619D01*
X126852380Y-138595238D01*
X126852380Y-138328571D01*
X126890476Y-138176190D01*
X126966666Y-138100000D01*
X127042857Y-138061904D01*
X127195238Y-138061904D01*
X127271428Y-138100000D01*
X127347619Y-138176190D01*
X127385714Y-138328571D01*
X127385714Y-138595238D01*
X127347619Y-138747619D01*
X127271428Y-138823809D01*
X127195238Y-138861904D01*
X127042857Y-138861904D01*
X127652380Y-138061904D02*
X128147619Y-138061904D01*
X127880952Y-138366666D01*
X127995238Y-138366666D01*
X128071428Y-138404761D01*
X128109523Y-138442857D01*
X128147619Y-138519047D01*
X128147619Y-138709523D01*
X128109523Y-138785714D01*
X128071428Y-138823809D01*
X127995238Y-138861904D01*
X127766666Y-138861904D01*
X127690476Y-138823809D01*
X127652380Y-138785714D01*
%TO.C,Q2*%
X136438095Y-136076190D02*
X136400000Y-136152380D01*
X136323809Y-136228571D01*
X136209523Y-136342857D01*
X136171428Y-136419047D01*
X136171428Y-136495238D01*
X136361904Y-136457142D02*
X136323809Y-136533333D01*
X136247619Y-136609523D01*
X136095238Y-136647619D01*
X135828571Y-136647619D01*
X135676190Y-136609523D01*
X135600000Y-136533333D01*
X135561904Y-136457142D01*
X135561904Y-136304761D01*
X135600000Y-136228571D01*
X135676190Y-136152380D01*
X135828571Y-136114285D01*
X136095238Y-136114285D01*
X136247619Y-136152380D01*
X136323809Y-136228571D01*
X136361904Y-136304761D01*
X136361904Y-136457142D01*
X135638095Y-135809523D02*
X135600000Y-135771428D01*
X135561904Y-135695238D01*
X135561904Y-135504761D01*
X135600000Y-135428571D01*
X135638095Y-135390476D01*
X135714285Y-135352380D01*
X135790476Y-135352380D01*
X135904761Y-135390476D01*
X136361904Y-135847619D01*
X136361904Y-135352380D01*
X131361904Y-138952380D02*
X130561904Y-138952380D01*
X131133333Y-138685714D01*
X130561904Y-138419047D01*
X131361904Y-138419047D01*
X131361904Y-138038095D02*
X130561904Y-138038095D01*
X131133333Y-137771428D01*
X130561904Y-137504761D01*
X131361904Y-137504761D01*
X130942857Y-136857142D02*
X130980952Y-136742857D01*
X131019047Y-136704761D01*
X131095238Y-136666666D01*
X131209523Y-136666666D01*
X131285714Y-136704761D01*
X131323809Y-136742857D01*
X131361904Y-136819047D01*
X131361904Y-137123809D01*
X130561904Y-137123809D01*
X130561904Y-136857142D01*
X130600000Y-136780952D01*
X130638095Y-136742857D01*
X130714285Y-136704761D01*
X130790476Y-136704761D01*
X130866666Y-136742857D01*
X130904761Y-136780952D01*
X130942857Y-136857142D01*
X130942857Y-137123809D01*
X130561904Y-136438095D02*
X130561904Y-135980952D01*
X131361904Y-136209523D02*
X130561904Y-136209523D01*
X130561904Y-135790476D02*
X130561904Y-135295238D01*
X130866666Y-135561904D01*
X130866666Y-135447619D01*
X130904761Y-135371428D01*
X130942857Y-135333333D01*
X131019047Y-135295238D01*
X131209523Y-135295238D01*
X131285714Y-135333333D01*
X131323809Y-135371428D01*
X131361904Y-135447619D01*
X131361904Y-135676190D01*
X131323809Y-135752380D01*
X131285714Y-135790476D01*
X131361904Y-134914285D02*
X131361904Y-134761904D01*
X131323809Y-134685714D01*
X131285714Y-134647619D01*
X131171428Y-134571428D01*
X131019047Y-134533333D01*
X130714285Y-134533333D01*
X130638095Y-134571428D01*
X130600000Y-134609523D01*
X130561904Y-134685714D01*
X130561904Y-134838095D01*
X130600000Y-134914285D01*
X130638095Y-134952380D01*
X130714285Y-134990476D01*
X130904761Y-134990476D01*
X130980952Y-134952380D01*
X131019047Y-134914285D01*
X131057142Y-134838095D01*
X131057142Y-134685714D01*
X131019047Y-134609523D01*
X130980952Y-134571428D01*
X130904761Y-134533333D01*
X130561904Y-134038095D02*
X130561904Y-133961904D01*
X130600000Y-133885714D01*
X130638095Y-133847619D01*
X130714285Y-133809523D01*
X130866666Y-133771428D01*
X131057142Y-133771428D01*
X131209523Y-133809523D01*
X131285714Y-133847619D01*
X131323809Y-133885714D01*
X131361904Y-133961904D01*
X131361904Y-134038095D01*
X131323809Y-134114285D01*
X131285714Y-134152380D01*
X131209523Y-134190476D01*
X131057142Y-134228571D01*
X130866666Y-134228571D01*
X130714285Y-134190476D01*
X130638095Y-134152380D01*
X130600000Y-134114285D01*
X130561904Y-134038095D01*
X130828571Y-133085714D02*
X131361904Y-133085714D01*
X130523809Y-133276190D02*
X131095238Y-133466666D01*
X131095238Y-132971428D01*
%TO.C,Q1*%
X139938095Y-155076190D02*
X139900000Y-155152380D01*
X139823809Y-155228571D01*
X139709523Y-155342857D01*
X139671428Y-155419047D01*
X139671428Y-155495238D01*
X139861904Y-155457142D02*
X139823809Y-155533333D01*
X139747619Y-155609523D01*
X139595238Y-155647619D01*
X139328571Y-155647619D01*
X139176190Y-155609523D01*
X139100000Y-155533333D01*
X139061904Y-155457142D01*
X139061904Y-155304761D01*
X139100000Y-155228571D01*
X139176190Y-155152380D01*
X139328571Y-155114285D01*
X139595238Y-155114285D01*
X139747619Y-155152380D01*
X139823809Y-155228571D01*
X139861904Y-155304761D01*
X139861904Y-155457142D01*
X139861904Y-154352380D02*
X139861904Y-154809523D01*
X139861904Y-154580952D02*
X139061904Y-154580952D01*
X139176190Y-154657142D01*
X139252380Y-154733333D01*
X139290476Y-154809523D01*
X142361904Y-155452380D02*
X141561904Y-155452380D01*
X142133333Y-155185714D01*
X141561904Y-154919047D01*
X142361904Y-154919047D01*
X142361904Y-154538095D02*
X141561904Y-154538095D01*
X142133333Y-154271428D01*
X141561904Y-154004761D01*
X142361904Y-154004761D01*
X141942857Y-153357142D02*
X141980952Y-153242857D01*
X142019047Y-153204761D01*
X142095238Y-153166666D01*
X142209523Y-153166666D01*
X142285714Y-153204761D01*
X142323809Y-153242857D01*
X142361904Y-153319047D01*
X142361904Y-153623809D01*
X141561904Y-153623809D01*
X141561904Y-153357142D01*
X141600000Y-153280952D01*
X141638095Y-153242857D01*
X141714285Y-153204761D01*
X141790476Y-153204761D01*
X141866666Y-153242857D01*
X141904761Y-153280952D01*
X141942857Y-153357142D01*
X141942857Y-153623809D01*
X141561904Y-152938095D02*
X141561904Y-152480952D01*
X142361904Y-152709523D02*
X141561904Y-152709523D01*
X141561904Y-152290476D02*
X141561904Y-151795238D01*
X141866666Y-152061904D01*
X141866666Y-151947619D01*
X141904761Y-151871428D01*
X141942857Y-151833333D01*
X142019047Y-151795238D01*
X142209523Y-151795238D01*
X142285714Y-151833333D01*
X142323809Y-151871428D01*
X142361904Y-151947619D01*
X142361904Y-152176190D01*
X142323809Y-152252380D01*
X142285714Y-152290476D01*
X142361904Y-151414285D02*
X142361904Y-151261904D01*
X142323809Y-151185714D01*
X142285714Y-151147619D01*
X142171428Y-151071428D01*
X142019047Y-151033333D01*
X141714285Y-151033333D01*
X141638095Y-151071428D01*
X141600000Y-151109523D01*
X141561904Y-151185714D01*
X141561904Y-151338095D01*
X141600000Y-151414285D01*
X141638095Y-151452380D01*
X141714285Y-151490476D01*
X141904761Y-151490476D01*
X141980952Y-151452380D01*
X142019047Y-151414285D01*
X142057142Y-151338095D01*
X142057142Y-151185714D01*
X142019047Y-151109523D01*
X141980952Y-151071428D01*
X141904761Y-151033333D01*
X141561904Y-150538095D02*
X141561904Y-150461904D01*
X141600000Y-150385714D01*
X141638095Y-150347619D01*
X141714285Y-150309523D01*
X141866666Y-150271428D01*
X142057142Y-150271428D01*
X142209523Y-150309523D01*
X142285714Y-150347619D01*
X142323809Y-150385714D01*
X142361904Y-150461904D01*
X142361904Y-150538095D01*
X142323809Y-150614285D01*
X142285714Y-150652380D01*
X142209523Y-150690476D01*
X142057142Y-150728571D01*
X141866666Y-150728571D01*
X141714285Y-150690476D01*
X141638095Y-150652380D01*
X141600000Y-150614285D01*
X141561904Y-150538095D01*
X141828571Y-149585714D02*
X142361904Y-149585714D01*
X141523809Y-149776190D02*
X142095238Y-149966666D01*
X142095238Y-149471428D01*
%TO.C,J8*%
X122733333Y-127361904D02*
X122733333Y-127933333D01*
X122695238Y-128047619D01*
X122619047Y-128123809D01*
X122504761Y-128161904D01*
X122428571Y-128161904D01*
X123228571Y-127704761D02*
X123152380Y-127666666D01*
X123114285Y-127628571D01*
X123076190Y-127552380D01*
X123076190Y-127514285D01*
X123114285Y-127438095D01*
X123152380Y-127400000D01*
X123228571Y-127361904D01*
X123380952Y-127361904D01*
X123457142Y-127400000D01*
X123495238Y-127438095D01*
X123533333Y-127514285D01*
X123533333Y-127552380D01*
X123495238Y-127628571D01*
X123457142Y-127666666D01*
X123380952Y-127704761D01*
X123228571Y-127704761D01*
X123152380Y-127742857D01*
X123114285Y-127780952D01*
X123076190Y-127857142D01*
X123076190Y-128009523D01*
X123114285Y-128085714D01*
X123152380Y-128123809D01*
X123228571Y-128161904D01*
X123380952Y-128161904D01*
X123457142Y-128123809D01*
X123495238Y-128085714D01*
X123533333Y-128009523D01*
X123533333Y-127857142D01*
X123495238Y-127780952D01*
X123457142Y-127742857D01*
X123380952Y-127704761D01*
%TO.C,J7*%
X122733333Y-114861904D02*
X122733333Y-115433333D01*
X122695238Y-115547619D01*
X122619047Y-115623809D01*
X122504761Y-115661904D01*
X122428571Y-115661904D01*
X123038095Y-114861904D02*
X123571428Y-114861904D01*
X123228571Y-115661904D01*
%TO.C,J6*%
X138388333Y-100291904D02*
X138388333Y-100863333D01*
X138350238Y-100977619D01*
X138274047Y-101053809D01*
X138159761Y-101091904D01*
X138083571Y-101091904D01*
X139112142Y-100291904D02*
X138959761Y-100291904D01*
X138883571Y-100330000D01*
X138845476Y-100368095D01*
X138769285Y-100482380D01*
X138731190Y-100634761D01*
X138731190Y-100939523D01*
X138769285Y-101015714D01*
X138807380Y-101053809D01*
X138883571Y-101091904D01*
X139035952Y-101091904D01*
X139112142Y-101053809D01*
X139150238Y-101015714D01*
X139188333Y-100939523D01*
X139188333Y-100749047D01*
X139150238Y-100672857D01*
X139112142Y-100634761D01*
X139035952Y-100596666D01*
X138883571Y-100596666D01*
X138807380Y-100634761D01*
X138769285Y-100672857D01*
X138731190Y-100749047D01*
%TO.C,J5*%
X139388333Y-53291904D02*
X139388333Y-53863333D01*
X139350238Y-53977619D01*
X139274047Y-54053809D01*
X139159761Y-54091904D01*
X139083571Y-54091904D01*
X140150238Y-53291904D02*
X139769285Y-53291904D01*
X139731190Y-53672857D01*
X139769285Y-53634761D01*
X139845476Y-53596666D01*
X140035952Y-53596666D01*
X140112142Y-53634761D01*
X140150238Y-53672857D01*
X140188333Y-53749047D01*
X140188333Y-53939523D01*
X140150238Y-54015714D01*
X140112142Y-54053809D01*
X140035952Y-54091904D01*
X139845476Y-54091904D01*
X139769285Y-54053809D01*
X139731190Y-54015714D01*
%TO.C,J4*%
X122733333Y-94861904D02*
X122733333Y-95433333D01*
X122695238Y-95547619D01*
X122619047Y-95623809D01*
X122504761Y-95661904D01*
X122428571Y-95661904D01*
X123457142Y-95128571D02*
X123457142Y-95661904D01*
X123266666Y-94823809D02*
X123076190Y-95395238D01*
X123571428Y-95395238D01*
%TO.C,J3*%
X122733333Y-82361904D02*
X122733333Y-82933333D01*
X122695238Y-83047619D01*
X122619047Y-83123809D01*
X122504761Y-83161904D01*
X122428571Y-83161904D01*
X123038095Y-82361904D02*
X123533333Y-82361904D01*
X123266666Y-82666666D01*
X123380952Y-82666666D01*
X123457142Y-82704761D01*
X123495238Y-82742857D01*
X123533333Y-82819047D01*
X123533333Y-83009523D01*
X123495238Y-83085714D01*
X123457142Y-83123809D01*
X123380952Y-83161904D01*
X123152380Y-83161904D01*
X123076190Y-83123809D01*
X123038095Y-83085714D01*
%TO.C,J2*%
X122733333Y-69861904D02*
X122733333Y-70433333D01*
X122695238Y-70547619D01*
X122619047Y-70623809D01*
X122504761Y-70661904D01*
X122428571Y-70661904D01*
X123076190Y-69938095D02*
X123114285Y-69900000D01*
X123190476Y-69861904D01*
X123380952Y-69861904D01*
X123457142Y-69900000D01*
X123495238Y-69938095D01*
X123533333Y-70014285D01*
X123533333Y-70090476D01*
X123495238Y-70204761D01*
X123038095Y-70661904D01*
X123533333Y-70661904D01*
%TO.C,J1*%
X122733333Y-57361904D02*
X122733333Y-57933333D01*
X122695238Y-58047619D01*
X122619047Y-58123809D01*
X122504761Y-58161904D01*
X122428571Y-58161904D01*
X123533333Y-58161904D02*
X123076190Y-58161904D01*
X123304761Y-58161904D02*
X123304761Y-57361904D01*
X123228571Y-57476190D01*
X123152380Y-57552380D01*
X123076190Y-57590476D01*
%TO.C,D5*%
X143361904Y-72340476D02*
X142561904Y-72340476D01*
X142561904Y-72150000D01*
X142600000Y-72035714D01*
X142676190Y-71959523D01*
X142752380Y-71921428D01*
X142904761Y-71883333D01*
X143019047Y-71883333D01*
X143171428Y-71921428D01*
X143247619Y-71959523D01*
X143323809Y-72035714D01*
X143361904Y-72150000D01*
X143361904Y-72340476D01*
X142561904Y-71159523D02*
X142561904Y-71540476D01*
X142942857Y-71578571D01*
X142904761Y-71540476D01*
X142866666Y-71464285D01*
X142866666Y-71273809D01*
X142904761Y-71197619D01*
X142942857Y-71159523D01*
X143019047Y-71121428D01*
X143209523Y-71121428D01*
X143285714Y-71159523D01*
X143323809Y-71197619D01*
X143361904Y-71273809D01*
X143361904Y-71464285D01*
X143323809Y-71540476D01*
X143285714Y-71578571D01*
X141611904Y-76714285D02*
X141611904Y-77171428D01*
X141611904Y-76942857D02*
X140811904Y-76942857D01*
X140926190Y-77019047D01*
X141002380Y-77095238D01*
X141040476Y-77171428D01*
X141611904Y-76371428D02*
X140811904Y-76371428D01*
X141611904Y-75914285D01*
X140811904Y-75914285D01*
X140811904Y-75152380D02*
X140811904Y-75533333D01*
X141192857Y-75571428D01*
X141154761Y-75533333D01*
X141116666Y-75457142D01*
X141116666Y-75266666D01*
X141154761Y-75190476D01*
X141192857Y-75152380D01*
X141269047Y-75114285D01*
X141459523Y-75114285D01*
X141535714Y-75152380D01*
X141573809Y-75190476D01*
X141611904Y-75266666D01*
X141611904Y-75457142D01*
X141573809Y-75533333D01*
X141535714Y-75571428D01*
X141154761Y-74657142D02*
X141116666Y-74733333D01*
X141078571Y-74771428D01*
X141002380Y-74809523D01*
X140964285Y-74809523D01*
X140888095Y-74771428D01*
X140850000Y-74733333D01*
X140811904Y-74657142D01*
X140811904Y-74504761D01*
X140850000Y-74428571D01*
X140888095Y-74390476D01*
X140964285Y-74352380D01*
X141002380Y-74352380D01*
X141078571Y-74390476D01*
X141116666Y-74428571D01*
X141154761Y-74504761D01*
X141154761Y-74657142D01*
X141192857Y-74733333D01*
X141230952Y-74771428D01*
X141307142Y-74809523D01*
X141459523Y-74809523D01*
X141535714Y-74771428D01*
X141573809Y-74733333D01*
X141611904Y-74657142D01*
X141611904Y-74504761D01*
X141573809Y-74428571D01*
X141535714Y-74390476D01*
X141459523Y-74352380D01*
X141307142Y-74352380D01*
X141230952Y-74390476D01*
X141192857Y-74428571D01*
X141154761Y-74504761D01*
X141611904Y-73590476D02*
X141611904Y-74047619D01*
X141611904Y-73819047D02*
X140811904Y-73819047D01*
X140926190Y-73895238D01*
X141002380Y-73971428D01*
X141040476Y-74047619D01*
X141611904Y-73209523D02*
X141611904Y-73057142D01*
X141573809Y-72980952D01*
X141535714Y-72942857D01*
X141421428Y-72866666D01*
X141269047Y-72828571D01*
X140964285Y-72828571D01*
X140888095Y-72866666D01*
X140850000Y-72904761D01*
X140811904Y-72980952D01*
X140811904Y-73133333D01*
X140850000Y-73209523D01*
X140888095Y-73247619D01*
X140964285Y-73285714D01*
X141154761Y-73285714D01*
X141230952Y-73247619D01*
X141269047Y-73209523D01*
X141307142Y-73133333D01*
X141307142Y-72980952D01*
X141269047Y-72904761D01*
X141230952Y-72866666D01*
X141154761Y-72828571D01*
%TO.C,D4*%
X118159523Y-106361904D02*
X118159523Y-105561904D01*
X118350000Y-105561904D01*
X118464285Y-105600000D01*
X118540476Y-105676190D01*
X118578571Y-105752380D01*
X118616666Y-105904761D01*
X118616666Y-106019047D01*
X118578571Y-106171428D01*
X118540476Y-106247619D01*
X118464285Y-106323809D01*
X118350000Y-106361904D01*
X118159523Y-106361904D01*
X119302380Y-105828571D02*
X119302380Y-106361904D01*
X119111904Y-105523809D02*
X118921428Y-106095238D01*
X119416666Y-106095238D01*
X120035714Y-108361904D02*
X119578571Y-108361904D01*
X119807142Y-108361904D02*
X119807142Y-107561904D01*
X119730952Y-107676190D01*
X119654761Y-107752380D01*
X119578571Y-107790476D01*
X120378571Y-108361904D02*
X120378571Y-107561904D01*
X120835714Y-108361904D01*
X120835714Y-107561904D01*
X121559523Y-107828571D02*
X121559523Y-108361904D01*
X121369047Y-107523809D02*
X121178571Y-108095238D01*
X121673809Y-108095238D01*
X122397619Y-108361904D02*
X121940476Y-108361904D01*
X122169047Y-108361904D02*
X122169047Y-107561904D01*
X122092857Y-107676190D01*
X122016666Y-107752380D01*
X121940476Y-107790476D01*
X123083333Y-107828571D02*
X123083333Y-108361904D01*
X122892857Y-107523809D02*
X122702380Y-108095238D01*
X123197619Y-108095238D01*
X123616666Y-107904761D02*
X123540476Y-107866666D01*
X123502380Y-107828571D01*
X123464285Y-107752380D01*
X123464285Y-107714285D01*
X123502380Y-107638095D01*
X123540476Y-107600000D01*
X123616666Y-107561904D01*
X123769047Y-107561904D01*
X123845238Y-107600000D01*
X123883333Y-107638095D01*
X123921428Y-107714285D01*
X123921428Y-107752380D01*
X123883333Y-107828571D01*
X123845238Y-107866666D01*
X123769047Y-107904761D01*
X123616666Y-107904761D01*
X123540476Y-107942857D01*
X123502380Y-107980952D01*
X123464285Y-108057142D01*
X123464285Y-108209523D01*
X123502380Y-108285714D01*
X123540476Y-108323809D01*
X123616666Y-108361904D01*
X123769047Y-108361904D01*
X123845238Y-108323809D01*
X123883333Y-108285714D01*
X123921428Y-108209523D01*
X123921428Y-108057142D01*
X123883333Y-107980952D01*
X123845238Y-107942857D01*
X123769047Y-107904761D01*
%TO.C,D3*%
X136861904Y-91840476D02*
X136061904Y-91840476D01*
X136061904Y-91650000D01*
X136100000Y-91535714D01*
X136176190Y-91459523D01*
X136252380Y-91421428D01*
X136404761Y-91383333D01*
X136519047Y-91383333D01*
X136671428Y-91421428D01*
X136747619Y-91459523D01*
X136823809Y-91535714D01*
X136861904Y-91650000D01*
X136861904Y-91840476D01*
X136061904Y-91116666D02*
X136061904Y-90621428D01*
X136366666Y-90888095D01*
X136366666Y-90773809D01*
X136404761Y-90697619D01*
X136442857Y-90659523D01*
X136519047Y-90621428D01*
X136709523Y-90621428D01*
X136785714Y-90659523D01*
X136823809Y-90697619D01*
X136861904Y-90773809D01*
X136861904Y-91002380D01*
X136823809Y-91078571D01*
X136785714Y-91116666D01*
X138611904Y-89464285D02*
X138611904Y-89921428D01*
X138611904Y-89692857D02*
X137811904Y-89692857D01*
X137926190Y-89769047D01*
X138002380Y-89845238D01*
X138040476Y-89921428D01*
X138611904Y-89121428D02*
X137811904Y-89121428D01*
X138611904Y-88664285D01*
X137811904Y-88664285D01*
X138078571Y-87940476D02*
X138611904Y-87940476D01*
X137773809Y-88130952D02*
X138345238Y-88321428D01*
X138345238Y-87826190D01*
X138611904Y-87102380D02*
X138611904Y-87559523D01*
X138611904Y-87330952D02*
X137811904Y-87330952D01*
X137926190Y-87407142D01*
X138002380Y-87483333D01*
X138040476Y-87559523D01*
X138078571Y-86416666D02*
X138611904Y-86416666D01*
X137773809Y-86607142D02*
X138345238Y-86797619D01*
X138345238Y-86302380D01*
X138154761Y-85883333D02*
X138116666Y-85959523D01*
X138078571Y-85997619D01*
X138002380Y-86035714D01*
X137964285Y-86035714D01*
X137888095Y-85997619D01*
X137850000Y-85959523D01*
X137811904Y-85883333D01*
X137811904Y-85730952D01*
X137850000Y-85654761D01*
X137888095Y-85616666D01*
X137964285Y-85578571D01*
X138002380Y-85578571D01*
X138078571Y-85616666D01*
X138116666Y-85654761D01*
X138154761Y-85730952D01*
X138154761Y-85883333D01*
X138192857Y-85959523D01*
X138230952Y-85997619D01*
X138307142Y-86035714D01*
X138459523Y-86035714D01*
X138535714Y-85997619D01*
X138573809Y-85959523D01*
X138611904Y-85883333D01*
X138611904Y-85730952D01*
X138573809Y-85654761D01*
X138535714Y-85616666D01*
X138459523Y-85578571D01*
X138307142Y-85578571D01*
X138230952Y-85616666D01*
X138192857Y-85654761D01*
X138154761Y-85730952D01*
%TO.C,D2*%
X140111904Y-81840476D02*
X139311904Y-81840476D01*
X139311904Y-81650000D01*
X139350000Y-81535714D01*
X139426190Y-81459523D01*
X139502380Y-81421428D01*
X139654761Y-81383333D01*
X139769047Y-81383333D01*
X139921428Y-81421428D01*
X139997619Y-81459523D01*
X140073809Y-81535714D01*
X140111904Y-81650000D01*
X140111904Y-81840476D01*
X139388095Y-81078571D02*
X139350000Y-81040476D01*
X139311904Y-80964285D01*
X139311904Y-80773809D01*
X139350000Y-80697619D01*
X139388095Y-80659523D01*
X139464285Y-80621428D01*
X139540476Y-80621428D01*
X139654761Y-80659523D01*
X140111904Y-81116666D01*
X140111904Y-80621428D01*
X138861904Y-82995285D02*
X138861904Y-83452428D01*
X138861904Y-83223857D02*
X138061904Y-83223857D01*
X138176190Y-83300047D01*
X138252380Y-83376238D01*
X138290476Y-83452428D01*
X138861904Y-82652428D02*
X138061904Y-82652428D01*
X138861904Y-82195285D01*
X138061904Y-82195285D01*
X138328571Y-81471476D02*
X138861904Y-81471476D01*
X138023809Y-81661952D02*
X138595238Y-81852428D01*
X138595238Y-81357190D01*
X138861904Y-80633380D02*
X138861904Y-81090523D01*
X138861904Y-80861952D02*
X138061904Y-80861952D01*
X138176190Y-80938142D01*
X138252380Y-81014333D01*
X138290476Y-81090523D01*
X138328571Y-79947666D02*
X138861904Y-79947666D01*
X138023809Y-80138142D02*
X138595238Y-80328619D01*
X138595238Y-79833380D01*
X138404761Y-79414333D02*
X138366666Y-79490523D01*
X138328571Y-79528619D01*
X138252380Y-79566714D01*
X138214285Y-79566714D01*
X138138095Y-79528619D01*
X138100000Y-79490523D01*
X138061904Y-79414333D01*
X138061904Y-79261952D01*
X138100000Y-79185761D01*
X138138095Y-79147666D01*
X138214285Y-79109571D01*
X138252380Y-79109571D01*
X138328571Y-79147666D01*
X138366666Y-79185761D01*
X138404761Y-79261952D01*
X138404761Y-79414333D01*
X138442857Y-79490523D01*
X138480952Y-79528619D01*
X138557142Y-79566714D01*
X138709523Y-79566714D01*
X138785714Y-79528619D01*
X138823809Y-79490523D01*
X138861904Y-79414333D01*
X138861904Y-79261952D01*
X138823809Y-79185761D01*
X138785714Y-79147666D01*
X138709523Y-79109571D01*
X138557142Y-79109571D01*
X138480952Y-79147666D01*
X138442857Y-79185761D01*
X138404761Y-79261952D01*
%TO.C,D1*%
X137961904Y-72290476D02*
X137161904Y-72290476D01*
X137161904Y-72100000D01*
X137200000Y-71985714D01*
X137276190Y-71909523D01*
X137352380Y-71871428D01*
X137504761Y-71833333D01*
X137619047Y-71833333D01*
X137771428Y-71871428D01*
X137847619Y-71909523D01*
X137923809Y-71985714D01*
X137961904Y-72100000D01*
X137961904Y-72290476D01*
X137961904Y-71071428D02*
X137961904Y-71528571D01*
X137961904Y-71300000D02*
X137161904Y-71300000D01*
X137276190Y-71376190D01*
X137352380Y-71452380D01*
X137390476Y-71528571D01*
X139661904Y-75714285D02*
X139661904Y-76171428D01*
X139661904Y-75942857D02*
X138861904Y-75942857D01*
X138976190Y-76019047D01*
X139052380Y-76095238D01*
X139090476Y-76171428D01*
X139661904Y-75371428D02*
X138861904Y-75371428D01*
X139661904Y-74914285D01*
X138861904Y-74914285D01*
X139128571Y-74190476D02*
X139661904Y-74190476D01*
X138823809Y-74380952D02*
X139395238Y-74571428D01*
X139395238Y-74076190D01*
X139661904Y-73352380D02*
X139661904Y-73809523D01*
X139661904Y-73580952D02*
X138861904Y-73580952D01*
X138976190Y-73657142D01*
X139052380Y-73733333D01*
X139090476Y-73809523D01*
X139128571Y-72666666D02*
X139661904Y-72666666D01*
X138823809Y-72857142D02*
X139395238Y-73047619D01*
X139395238Y-72552380D01*
X139204761Y-72133333D02*
X139166666Y-72209523D01*
X139128571Y-72247619D01*
X139052380Y-72285714D01*
X139014285Y-72285714D01*
X138938095Y-72247619D01*
X138900000Y-72209523D01*
X138861904Y-72133333D01*
X138861904Y-71980952D01*
X138900000Y-71904761D01*
X138938095Y-71866666D01*
X139014285Y-71828571D01*
X139052380Y-71828571D01*
X139128571Y-71866666D01*
X139166666Y-71904761D01*
X139204761Y-71980952D01*
X139204761Y-72133333D01*
X139242857Y-72209523D01*
X139280952Y-72247619D01*
X139357142Y-72285714D01*
X139509523Y-72285714D01*
X139585714Y-72247619D01*
X139623809Y-72209523D01*
X139661904Y-72133333D01*
X139661904Y-71980952D01*
X139623809Y-71904761D01*
X139585714Y-71866666D01*
X139509523Y-71828571D01*
X139357142Y-71828571D01*
X139280952Y-71866666D01*
X139242857Y-71904761D01*
X139204761Y-71980952D01*
%TO.C,C2*%
X136785714Y-119383333D02*
X136823809Y-119421428D01*
X136861904Y-119535714D01*
X136861904Y-119611904D01*
X136823809Y-119726190D01*
X136747619Y-119802380D01*
X136671428Y-119840476D01*
X136519047Y-119878571D01*
X136404761Y-119878571D01*
X136252380Y-119840476D01*
X136176190Y-119802380D01*
X136100000Y-119726190D01*
X136061904Y-119611904D01*
X136061904Y-119535714D01*
X136100000Y-119421428D01*
X136138095Y-119383333D01*
X136138095Y-119078571D02*
X136100000Y-119040476D01*
X136061904Y-118964285D01*
X136061904Y-118773809D01*
X136100000Y-118697619D01*
X136138095Y-118659523D01*
X136214285Y-118621428D01*
X136290476Y-118621428D01*
X136404761Y-118659523D01*
X136861904Y-119116666D01*
X136861904Y-118621428D01*
X134631904Y-122733928D02*
X134631904Y-122657738D01*
X134670000Y-122581547D01*
X134708095Y-122543452D01*
X134784285Y-122505357D01*
X134936666Y-122467261D01*
X135127142Y-122467261D01*
X135279523Y-122505357D01*
X135355714Y-122543452D01*
X135393809Y-122581547D01*
X135431904Y-122657738D01*
X135431904Y-122733928D01*
X135393809Y-122810119D01*
X135355714Y-122848214D01*
X135279523Y-122886309D01*
X135127142Y-122924404D01*
X134936666Y-122924404D01*
X134784285Y-122886309D01*
X134708095Y-122848214D01*
X134670000Y-122810119D01*
X134631904Y-122733928D01*
X135355714Y-122124404D02*
X135393809Y-122086309D01*
X135431904Y-122124404D01*
X135393809Y-122162500D01*
X135355714Y-122124404D01*
X135431904Y-122124404D01*
X135431904Y-121324404D02*
X135431904Y-121781547D01*
X135431904Y-121552976D02*
X134631904Y-121552976D01*
X134746190Y-121629166D01*
X134822380Y-121705357D01*
X134860476Y-121781547D01*
X134898571Y-120638690D02*
X135431904Y-120638690D01*
X134898571Y-120981547D02*
X135317619Y-120981547D01*
X135393809Y-120943452D01*
X135431904Y-120867261D01*
X135431904Y-120752976D01*
X135393809Y-120676785D01*
X135355714Y-120638690D01*
%TO.C,C1*%
X143285714Y-84383333D02*
X143323809Y-84421428D01*
X143361904Y-84535714D01*
X143361904Y-84611904D01*
X143323809Y-84726190D01*
X143247619Y-84802380D01*
X143171428Y-84840476D01*
X143019047Y-84878571D01*
X142904761Y-84878571D01*
X142752380Y-84840476D01*
X142676190Y-84802380D01*
X142600000Y-84726190D01*
X142561904Y-84611904D01*
X142561904Y-84535714D01*
X142600000Y-84421428D01*
X142638095Y-84383333D01*
X143361904Y-83621428D02*
X143361904Y-84078571D01*
X143361904Y-83850000D02*
X142561904Y-83850000D01*
X142676190Y-83926190D01*
X142752380Y-84002380D01*
X142790476Y-84078571D01*
X141681904Y-80551785D02*
X141681904Y-81008928D01*
X141681904Y-80780357D02*
X140881904Y-80780357D01*
X140996190Y-80856547D01*
X141072380Y-80932738D01*
X141110476Y-81008928D01*
X140881904Y-80056547D02*
X140881904Y-79980357D01*
X140920000Y-79904166D01*
X140958095Y-79866071D01*
X141034285Y-79827976D01*
X141186666Y-79789880D01*
X141377142Y-79789880D01*
X141529523Y-79827976D01*
X141605714Y-79866071D01*
X141643809Y-79904166D01*
X141681904Y-79980357D01*
X141681904Y-80056547D01*
X141643809Y-80132738D01*
X141605714Y-80170833D01*
X141529523Y-80208928D01*
X141377142Y-80247023D01*
X141186666Y-80247023D01*
X141034285Y-80208928D01*
X140958095Y-80170833D01*
X140920000Y-80132738D01*
X140881904Y-80056547D01*
X141148571Y-79104166D02*
X141681904Y-79104166D01*
X141148571Y-79447023D02*
X141567619Y-79447023D01*
X141643809Y-79408928D01*
X141681904Y-79332738D01*
X141681904Y-79218452D01*
X141643809Y-79142261D01*
X141605714Y-79104166D01*
%TD*%
%LPC*%
D14*
%TO.C,U1*%
X117932180Y-157166880D03*
X120472180Y-157166880D03*
X123012180Y-157166880D03*
X125552180Y-157166880D03*
X128092180Y-157166880D03*
X130632180Y-157166880D03*
X133172180Y-157166880D03*
X133172180Y-141002320D03*
X130632180Y-141002320D03*
X128092180Y-141002320D03*
X125552180Y-141002320D03*
X123012180Y-141002320D03*
X120472180Y-141002320D03*
X117932180Y-141002320D03*
%TD*%
%TO.C,U2*%
G36*
G01*
X138245000Y-121700000D02*
X137945000Y-121700000D01*
G75*
G02*
X137795000Y-121550000I0J150000D01*
G01*
X137795000Y-120200000D01*
G75*
G02*
X137945000Y-120050000I150000J0D01*
G01*
X138245000Y-120050000D01*
G75*
G02*
X138395000Y-120200000I0J-150000D01*
G01*
X138395000Y-121550000D01*
G75*
G02*
X138245000Y-121700000I-150000J0D01*
G01*
G37*
G36*
G01*
X139515000Y-121700000D02*
X139215000Y-121700000D01*
G75*
G02*
X139065000Y-121550000I0J150000D01*
G01*
X139065000Y-120200000D01*
G75*
G02*
X139215000Y-120050000I150000J0D01*
G01*
X139515000Y-120050000D01*
G75*
G02*
X139665000Y-120200000I0J-150000D01*
G01*
X139665000Y-121550000D01*
G75*
G02*
X139515000Y-121700000I-150000J0D01*
G01*
G37*
G36*
G01*
X140785000Y-121700000D02*
X140485000Y-121700000D01*
G75*
G02*
X140335000Y-121550000I0J150000D01*
G01*
X140335000Y-120200000D01*
G75*
G02*
X140485000Y-120050000I150000J0D01*
G01*
X140785000Y-120050000D01*
G75*
G02*
X140935000Y-120200000I0J-150000D01*
G01*
X140935000Y-121550000D01*
G75*
G02*
X140785000Y-121700000I-150000J0D01*
G01*
G37*
G36*
G01*
X142055000Y-121700000D02*
X141755000Y-121700000D01*
G75*
G02*
X141605000Y-121550000I0J150000D01*
G01*
X141605000Y-120200000D01*
G75*
G02*
X141755000Y-120050000I150000J0D01*
G01*
X142055000Y-120050000D01*
G75*
G02*
X142205000Y-120200000I0J-150000D01*
G01*
X142205000Y-121550000D01*
G75*
G02*
X142055000Y-121700000I-150000J0D01*
G01*
G37*
G36*
G01*
X142055000Y-126950000D02*
X141755000Y-126950000D01*
G75*
G02*
X141605000Y-126800000I0J150000D01*
G01*
X141605000Y-125450000D01*
G75*
G02*
X141755000Y-125300000I150000J0D01*
G01*
X142055000Y-125300000D01*
G75*
G02*
X142205000Y-125450000I0J-150000D01*
G01*
X142205000Y-126800000D01*
G75*
G02*
X142055000Y-126950000I-150000J0D01*
G01*
G37*
G36*
G01*
X140785000Y-126950000D02*
X140485000Y-126950000D01*
G75*
G02*
X140335000Y-126800000I0J150000D01*
G01*
X140335000Y-125450000D01*
G75*
G02*
X140485000Y-125300000I150000J0D01*
G01*
X140785000Y-125300000D01*
G75*
G02*
X140935000Y-125450000I0J-150000D01*
G01*
X140935000Y-126800000D01*
G75*
G02*
X140785000Y-126950000I-150000J0D01*
G01*
G37*
G36*
G01*
X139515000Y-126950000D02*
X139215000Y-126950000D01*
G75*
G02*
X139065000Y-126800000I0J150000D01*
G01*
X139065000Y-125450000D01*
G75*
G02*
X139215000Y-125300000I150000J0D01*
G01*
X139515000Y-125300000D01*
G75*
G02*
X139665000Y-125450000I0J-150000D01*
G01*
X139665000Y-126800000D01*
G75*
G02*
X139515000Y-126950000I-150000J0D01*
G01*
G37*
G36*
G01*
X138245000Y-126950000D02*
X137945000Y-126950000D01*
G75*
G02*
X137795000Y-126800000I0J150000D01*
G01*
X137795000Y-125450000D01*
G75*
G02*
X137945000Y-125300000I150000J0D01*
G01*
X138245000Y-125300000D01*
G75*
G02*
X138395000Y-125450000I0J-150000D01*
G01*
X138395000Y-126800000D01*
G75*
G02*
X138245000Y-126950000I-150000J0D01*
G01*
G37*
%TD*%
%TO.C,R16*%
G36*
G01*
X134513500Y-129777500D02*
X134513500Y-129302500D01*
G75*
G02*
X134751000Y-129065000I237500J0D01*
G01*
X135251000Y-129065000D01*
G75*
G02*
X135488500Y-129302500I0J-237500D01*
G01*
X135488500Y-129777500D01*
G75*
G02*
X135251000Y-130015000I-237500J0D01*
G01*
X134751000Y-130015000D01*
G75*
G02*
X134513500Y-129777500I0J237500D01*
G01*
G37*
G36*
G01*
X132688500Y-129777500D02*
X132688500Y-129302500D01*
G75*
G02*
X132926000Y-129065000I237500J0D01*
G01*
X133426000Y-129065000D01*
G75*
G02*
X133663500Y-129302500I0J-237500D01*
G01*
X133663500Y-129777500D01*
G75*
G02*
X133426000Y-130015000I-237500J0D01*
G01*
X132926000Y-130015000D01*
G75*
G02*
X132688500Y-129777500I0J237500D01*
G01*
G37*
%TD*%
%TO.C,R15*%
G36*
G01*
X133425000Y-118237500D02*
X133425000Y-117762500D01*
G75*
G02*
X133662500Y-117525000I237500J0D01*
G01*
X134162500Y-117525000D01*
G75*
G02*
X134400000Y-117762500I0J-237500D01*
G01*
X134400000Y-118237500D01*
G75*
G02*
X134162500Y-118475000I-237500J0D01*
G01*
X133662500Y-118475000D01*
G75*
G02*
X133425000Y-118237500I0J237500D01*
G01*
G37*
G36*
G01*
X131600000Y-118237500D02*
X131600000Y-117762500D01*
G75*
G02*
X131837500Y-117525000I237500J0D01*
G01*
X132337500Y-117525000D01*
G75*
G02*
X132575000Y-117762500I0J-237500D01*
G01*
X132575000Y-118237500D01*
G75*
G02*
X132337500Y-118475000I-237500J0D01*
G01*
X131837500Y-118475000D01*
G75*
G02*
X131600000Y-118237500I0J237500D01*
G01*
G37*
%TD*%
%TO.C,R14*%
G36*
G01*
X139132500Y-129777500D02*
X139132500Y-129302500D01*
G75*
G02*
X139370000Y-129065000I237500J0D01*
G01*
X139870000Y-129065000D01*
G75*
G02*
X140107500Y-129302500I0J-237500D01*
G01*
X140107500Y-129777500D01*
G75*
G02*
X139870000Y-130015000I-237500J0D01*
G01*
X139370000Y-130015000D01*
G75*
G02*
X139132500Y-129777500I0J237500D01*
G01*
G37*
G36*
G01*
X137307500Y-129777500D02*
X137307500Y-129302500D01*
G75*
G02*
X137545000Y-129065000I237500J0D01*
G01*
X138045000Y-129065000D01*
G75*
G02*
X138282500Y-129302500I0J-237500D01*
G01*
X138282500Y-129777500D01*
G75*
G02*
X138045000Y-130015000I-237500J0D01*
G01*
X137545000Y-130015000D01*
G75*
G02*
X137307500Y-129777500I0J237500D01*
G01*
G37*
%TD*%
%TO.C,R13*%
G36*
G01*
X140512500Y-118237500D02*
X140512500Y-117762500D01*
G75*
G02*
X140750000Y-117525000I237500J0D01*
G01*
X141250000Y-117525000D01*
G75*
G02*
X141487500Y-117762500I0J-237500D01*
G01*
X141487500Y-118237500D01*
G75*
G02*
X141250000Y-118475000I-237500J0D01*
G01*
X140750000Y-118475000D01*
G75*
G02*
X140512500Y-118237500I0J237500D01*
G01*
G37*
G36*
G01*
X138687500Y-118237500D02*
X138687500Y-117762500D01*
G75*
G02*
X138925000Y-117525000I237500J0D01*
G01*
X139425000Y-117525000D01*
G75*
G02*
X139662500Y-117762500I0J-237500D01*
G01*
X139662500Y-118237500D01*
G75*
G02*
X139425000Y-118475000I-237500J0D01*
G01*
X138925000Y-118475000D01*
G75*
G02*
X138687500Y-118237500I0J237500D01*
G01*
G37*
%TD*%
%TO.C,R12*%
G36*
G01*
X140762500Y-136512500D02*
X141237500Y-136512500D01*
G75*
G02*
X141475000Y-136750000I0J-237500D01*
G01*
X141475000Y-137250000D01*
G75*
G02*
X141237500Y-137487500I-237500J0D01*
G01*
X140762500Y-137487500D01*
G75*
G02*
X140525000Y-137250000I0J237500D01*
G01*
X140525000Y-136750000D01*
G75*
G02*
X140762500Y-136512500I237500J0D01*
G01*
G37*
G36*
G01*
X140762500Y-134687500D02*
X141237500Y-134687500D01*
G75*
G02*
X141475000Y-134925000I0J-237500D01*
G01*
X141475000Y-135425000D01*
G75*
G02*
X141237500Y-135662500I-237500J0D01*
G01*
X140762500Y-135662500D01*
G75*
G02*
X140525000Y-135425000I0J237500D01*
G01*
X140525000Y-134925000D01*
G75*
G02*
X140762500Y-134687500I237500J0D01*
G01*
G37*
%TD*%
%TO.C,R11*%
G36*
G01*
X138282500Y-130826500D02*
X138282500Y-131301500D01*
G75*
G02*
X138045000Y-131539000I-237500J0D01*
G01*
X137545000Y-131539000D01*
G75*
G02*
X137307500Y-131301500I0J237500D01*
G01*
X137307500Y-130826500D01*
G75*
G02*
X137545000Y-130589000I237500J0D01*
G01*
X138045000Y-130589000D01*
G75*
G02*
X138282500Y-130826500I0J-237500D01*
G01*
G37*
G36*
G01*
X140107500Y-130826500D02*
X140107500Y-131301500D01*
G75*
G02*
X139870000Y-131539000I-237500J0D01*
G01*
X139370000Y-131539000D01*
G75*
G02*
X139132500Y-131301500I0J237500D01*
G01*
X139132500Y-130826500D01*
G75*
G02*
X139370000Y-130589000I237500J0D01*
G01*
X139870000Y-130589000D01*
G75*
G02*
X140107500Y-130826500I0J-237500D01*
G01*
G37*
%TD*%
%TO.C,R10*%
G36*
G01*
X142762500Y-136425000D02*
X143237500Y-136425000D01*
G75*
G02*
X143475000Y-136662500I0J-237500D01*
G01*
X143475000Y-137162500D01*
G75*
G02*
X143237500Y-137400000I-237500J0D01*
G01*
X142762500Y-137400000D01*
G75*
G02*
X142525000Y-137162500I0J237500D01*
G01*
X142525000Y-136662500D01*
G75*
G02*
X142762500Y-136425000I237500J0D01*
G01*
G37*
G36*
G01*
X142762500Y-134600000D02*
X143237500Y-134600000D01*
G75*
G02*
X143475000Y-134837500I0J-237500D01*
G01*
X143475000Y-135337500D01*
G75*
G02*
X143237500Y-135575000I-237500J0D01*
G01*
X142762500Y-135575000D01*
G75*
G02*
X142525000Y-135337500I0J237500D01*
G01*
X142525000Y-134837500D01*
G75*
G02*
X142762500Y-134600000I237500J0D01*
G01*
G37*
%TD*%
%TO.C,R9*%
G36*
G01*
X139662500Y-116262500D02*
X139662500Y-116737500D01*
G75*
G02*
X139425000Y-116975000I-237500J0D01*
G01*
X138925000Y-116975000D01*
G75*
G02*
X138687500Y-116737500I0J237500D01*
G01*
X138687500Y-116262500D01*
G75*
G02*
X138925000Y-116025000I237500J0D01*
G01*
X139425000Y-116025000D01*
G75*
G02*
X139662500Y-116262500I0J-237500D01*
G01*
G37*
G36*
G01*
X141487500Y-116262500D02*
X141487500Y-116737500D01*
G75*
G02*
X141250000Y-116975000I-237500J0D01*
G01*
X140750000Y-116975000D01*
G75*
G02*
X140512500Y-116737500I0J237500D01*
G01*
X140512500Y-116262500D01*
G75*
G02*
X140750000Y-116025000I237500J0D01*
G01*
X141250000Y-116025000D01*
G75*
G02*
X141487500Y-116262500I0J-237500D01*
G01*
G37*
%TD*%
%TO.C,R8*%
G36*
G01*
X120697500Y-103862500D02*
X120697500Y-104337500D01*
G75*
G02*
X120460000Y-104575000I-237500J0D01*
G01*
X119960000Y-104575000D01*
G75*
G02*
X119722500Y-104337500I0J237500D01*
G01*
X119722500Y-103862500D01*
G75*
G02*
X119960000Y-103625000I237500J0D01*
G01*
X120460000Y-103625000D01*
G75*
G02*
X120697500Y-103862500I0J-237500D01*
G01*
G37*
G36*
G01*
X122522500Y-103862500D02*
X122522500Y-104337500D01*
G75*
G02*
X122285000Y-104575000I-237500J0D01*
G01*
X121785000Y-104575000D01*
G75*
G02*
X121547500Y-104337500I0J237500D01*
G01*
X121547500Y-103862500D01*
G75*
G02*
X121785000Y-103625000I237500J0D01*
G01*
X122285000Y-103625000D01*
G75*
G02*
X122522500Y-103862500I0J-237500D01*
G01*
G37*
%TD*%
%TO.C,R7*%
G36*
G01*
X134262500Y-88925000D02*
X134737500Y-88925000D01*
G75*
G02*
X134975000Y-89162500I0J-237500D01*
G01*
X134975000Y-89662500D01*
G75*
G02*
X134737500Y-89900000I-237500J0D01*
G01*
X134262500Y-89900000D01*
G75*
G02*
X134025000Y-89662500I0J237500D01*
G01*
X134025000Y-89162500D01*
G75*
G02*
X134262500Y-88925000I237500J0D01*
G01*
G37*
G36*
G01*
X134262500Y-87100000D02*
X134737500Y-87100000D01*
G75*
G02*
X134975000Y-87337500I0J-237500D01*
G01*
X134975000Y-87837500D01*
G75*
G02*
X134737500Y-88075000I-237500J0D01*
G01*
X134262500Y-88075000D01*
G75*
G02*
X134025000Y-87837500I0J237500D01*
G01*
X134025000Y-87337500D01*
G75*
G02*
X134262500Y-87100000I237500J0D01*
G01*
G37*
%TD*%
%TO.C,R6*%
G36*
G01*
X134262500Y-82425000D02*
X134737500Y-82425000D01*
G75*
G02*
X134975000Y-82662500I0J-237500D01*
G01*
X134975000Y-83162500D01*
G75*
G02*
X134737500Y-83400000I-237500J0D01*
G01*
X134262500Y-83400000D01*
G75*
G02*
X134025000Y-83162500I0J237500D01*
G01*
X134025000Y-82662500D01*
G75*
G02*
X134262500Y-82425000I237500J0D01*
G01*
G37*
G36*
G01*
X134262500Y-80600000D02*
X134737500Y-80600000D01*
G75*
G02*
X134975000Y-80837500I0J-237500D01*
G01*
X134975000Y-81337500D01*
G75*
G02*
X134737500Y-81575000I-237500J0D01*
G01*
X134262500Y-81575000D01*
G75*
G02*
X134025000Y-81337500I0J237500D01*
G01*
X134025000Y-80837500D01*
G75*
G02*
X134262500Y-80600000I237500J0D01*
G01*
G37*
%TD*%
%TO.C,R5*%
G36*
G01*
X135262500Y-74925000D02*
X135737500Y-74925000D01*
G75*
G02*
X135975000Y-75162500I0J-237500D01*
G01*
X135975000Y-75662500D01*
G75*
G02*
X135737500Y-75900000I-237500J0D01*
G01*
X135262500Y-75900000D01*
G75*
G02*
X135025000Y-75662500I0J237500D01*
G01*
X135025000Y-75162500D01*
G75*
G02*
X135262500Y-74925000I237500J0D01*
G01*
G37*
G36*
G01*
X135262500Y-73100000D02*
X135737500Y-73100000D01*
G75*
G02*
X135975000Y-73337500I0J-237500D01*
G01*
X135975000Y-73837500D01*
G75*
G02*
X135737500Y-74075000I-237500J0D01*
G01*
X135262500Y-74075000D01*
G75*
G02*
X135025000Y-73837500I0J237500D01*
G01*
X135025000Y-73337500D01*
G75*
G02*
X135262500Y-73100000I237500J0D01*
G01*
G37*
%TD*%
%TO.C,R4*%
G36*
G01*
X121547500Y-102837500D02*
X121547500Y-102362500D01*
G75*
G02*
X121785000Y-102125000I237500J0D01*
G01*
X122285000Y-102125000D01*
G75*
G02*
X122522500Y-102362500I0J-237500D01*
G01*
X122522500Y-102837500D01*
G75*
G02*
X122285000Y-103075000I-237500J0D01*
G01*
X121785000Y-103075000D01*
G75*
G02*
X121547500Y-102837500I0J237500D01*
G01*
G37*
G36*
G01*
X119722500Y-102837500D02*
X119722500Y-102362500D01*
G75*
G02*
X119960000Y-102125000I237500J0D01*
G01*
X120460000Y-102125000D01*
G75*
G02*
X120697500Y-102362500I0J-237500D01*
G01*
X120697500Y-102837500D01*
G75*
G02*
X120460000Y-103075000I-237500J0D01*
G01*
X119960000Y-103075000D01*
G75*
G02*
X119722500Y-102837500I0J237500D01*
G01*
G37*
%TD*%
%TO.C,R3*%
G36*
G01*
X133237500Y-88075000D02*
X132762500Y-88075000D01*
G75*
G02*
X132525000Y-87837500I0J237500D01*
G01*
X132525000Y-87337500D01*
G75*
G02*
X132762500Y-87100000I237500J0D01*
G01*
X133237500Y-87100000D01*
G75*
G02*
X133475000Y-87337500I0J-237500D01*
G01*
X133475000Y-87837500D01*
G75*
G02*
X133237500Y-88075000I-237500J0D01*
G01*
G37*
G36*
G01*
X133237500Y-89900000D02*
X132762500Y-89900000D01*
G75*
G02*
X132525000Y-89662500I0J237500D01*
G01*
X132525000Y-89162500D01*
G75*
G02*
X132762500Y-88925000I237500J0D01*
G01*
X133237500Y-88925000D01*
G75*
G02*
X133475000Y-89162500I0J-237500D01*
G01*
X133475000Y-89662500D01*
G75*
G02*
X133237500Y-89900000I-237500J0D01*
G01*
G37*
%TD*%
%TO.C,R2*%
G36*
G01*
X133237500Y-81575000D02*
X132762500Y-81575000D01*
G75*
G02*
X132525000Y-81337500I0J237500D01*
G01*
X132525000Y-80837500D01*
G75*
G02*
X132762500Y-80600000I237500J0D01*
G01*
X133237500Y-80600000D01*
G75*
G02*
X133475000Y-80837500I0J-237500D01*
G01*
X133475000Y-81337500D01*
G75*
G02*
X133237500Y-81575000I-237500J0D01*
G01*
G37*
G36*
G01*
X133237500Y-83400000D02*
X132762500Y-83400000D01*
G75*
G02*
X132525000Y-83162500I0J237500D01*
G01*
X132525000Y-82662500D01*
G75*
G02*
X132762500Y-82425000I237500J0D01*
G01*
X133237500Y-82425000D01*
G75*
G02*
X133475000Y-82662500I0J-237500D01*
G01*
X133475000Y-83162500D01*
G75*
G02*
X133237500Y-83400000I-237500J0D01*
G01*
G37*
%TD*%
%TO.C,R1*%
G36*
G01*
X134237500Y-74075000D02*
X133762500Y-74075000D01*
G75*
G02*
X133525000Y-73837500I0J237500D01*
G01*
X133525000Y-73337500D01*
G75*
G02*
X133762500Y-73100000I237500J0D01*
G01*
X134237500Y-73100000D01*
G75*
G02*
X134475000Y-73337500I0J-237500D01*
G01*
X134475000Y-73837500D01*
G75*
G02*
X134237500Y-74075000I-237500J0D01*
G01*
G37*
G36*
G01*
X134237500Y-75900000D02*
X133762500Y-75900000D01*
G75*
G02*
X133525000Y-75662500I0J237500D01*
G01*
X133525000Y-75162500D01*
G75*
G02*
X133762500Y-74925000I237500J0D01*
G01*
X134237500Y-74925000D01*
G75*
G02*
X134475000Y-75162500I0J-237500D01*
G01*
X134475000Y-75662500D01*
G75*
G02*
X134237500Y-75900000I-237500J0D01*
G01*
G37*
%TD*%
D15*
%TO.C,Q4*%
X123200000Y-136100000D03*
X121200000Y-137050000D03*
X121200000Y-135150000D03*
%TD*%
%TO.C,Q3*%
X128500000Y-136000000D03*
X126500000Y-136950000D03*
X126500000Y-135050000D03*
%TD*%
D16*
%TO.C,Q2*%
X133500000Y-137000000D03*
X132550000Y-135000000D03*
X134450000Y-135000000D03*
%TD*%
%TO.C,Q1*%
X139500000Y-153500000D03*
X138550000Y-151500000D03*
X140450000Y-151500000D03*
%TD*%
%TO.C,J8*%
G36*
G01*
X129600000Y-133200000D02*
X127400000Y-133200000D01*
G75*
G02*
X127150000Y-132950000I0J250000D01*
G01*
X127150000Y-132450000D01*
G75*
G02*
X127400000Y-132200000I250000J0D01*
G01*
X129600000Y-132200000D01*
G75*
G02*
X129850000Y-132450000I0J-250000D01*
G01*
X129850000Y-132950000D01*
G75*
G02*
X129600000Y-133200000I-250000J0D01*
G01*
G37*
G36*
G01*
X130200000Y-128600000D02*
X130200000Y-126400000D01*
G75*
G02*
X130450000Y-126150000I250000J0D01*
G01*
X130950000Y-126150000D01*
G75*
G02*
X131200000Y-126400000I0J-250000D01*
G01*
X131200000Y-128600000D01*
G75*
G02*
X130950000Y-128850000I-250000J0D01*
G01*
X130450000Y-128850000D01*
G75*
G02*
X130200000Y-128600000I0J250000D01*
G01*
G37*
G36*
G01*
X117000000Y-128600000D02*
X117000000Y-126400000D01*
G75*
G02*
X117250000Y-126150000I250000J0D01*
G01*
X117750000Y-126150000D01*
G75*
G02*
X118000000Y-126400000I0J-250000D01*
G01*
X118000000Y-128600000D01*
G75*
G02*
X117750000Y-128850000I-250000J0D01*
G01*
X117250000Y-128850000D01*
G75*
G02*
X117000000Y-128600000I0J250000D01*
G01*
G37*
%TD*%
%TO.C,J7*%
G36*
G01*
X129600000Y-120700000D02*
X127400000Y-120700000D01*
G75*
G02*
X127150000Y-120450000I0J250000D01*
G01*
X127150000Y-119950000D01*
G75*
G02*
X127400000Y-119700000I250000J0D01*
G01*
X129600000Y-119700000D01*
G75*
G02*
X129850000Y-119950000I0J-250000D01*
G01*
X129850000Y-120450000D01*
G75*
G02*
X129600000Y-120700000I-250000J0D01*
G01*
G37*
G36*
G01*
X130200000Y-116100000D02*
X130200000Y-113900000D01*
G75*
G02*
X130450000Y-113650000I250000J0D01*
G01*
X130950000Y-113650000D01*
G75*
G02*
X131200000Y-113900000I0J-250000D01*
G01*
X131200000Y-116100000D01*
G75*
G02*
X130950000Y-116350000I-250000J0D01*
G01*
X130450000Y-116350000D01*
G75*
G02*
X130200000Y-116100000I0J250000D01*
G01*
G37*
G36*
G01*
X117000000Y-116100000D02*
X117000000Y-113900000D01*
G75*
G02*
X117250000Y-113650000I250000J0D01*
G01*
X117750000Y-113650000D01*
G75*
G02*
X118000000Y-113900000I0J-250000D01*
G01*
X118000000Y-116100000D01*
G75*
G02*
X117750000Y-116350000I-250000J0D01*
G01*
X117250000Y-116350000D01*
G75*
G02*
X117000000Y-116100000I0J250000D01*
G01*
G37*
%TD*%
D17*
%TO.C,J6*%
X135540000Y-108080000D03*
X133000000Y-108080000D03*
X135540000Y-105540000D03*
X133000000Y-105540000D03*
X135540000Y-103000000D03*
D18*
X133000000Y-103000000D03*
%TD*%
D17*
%TO.C,J5*%
X136540000Y-66160000D03*
X134000000Y-66160000D03*
X136540000Y-63620000D03*
X134000000Y-63620000D03*
X136540000Y-61080000D03*
X134000000Y-61080000D03*
X136540000Y-58540000D03*
X134000000Y-58540000D03*
X136540000Y-56000000D03*
D18*
X134000000Y-56000000D03*
%TD*%
%TO.C,J4*%
G36*
G01*
X129600000Y-100700000D02*
X127400000Y-100700000D01*
G75*
G02*
X127150000Y-100450000I0J250000D01*
G01*
X127150000Y-99950000D01*
G75*
G02*
X127400000Y-99700000I250000J0D01*
G01*
X129600000Y-99700000D01*
G75*
G02*
X129850000Y-99950000I0J-250000D01*
G01*
X129850000Y-100450000D01*
G75*
G02*
X129600000Y-100700000I-250000J0D01*
G01*
G37*
G36*
G01*
X130200000Y-96100000D02*
X130200000Y-93900000D01*
G75*
G02*
X130450000Y-93650000I250000J0D01*
G01*
X130950000Y-93650000D01*
G75*
G02*
X131200000Y-93900000I0J-250000D01*
G01*
X131200000Y-96100000D01*
G75*
G02*
X130950000Y-96350000I-250000J0D01*
G01*
X130450000Y-96350000D01*
G75*
G02*
X130200000Y-96100000I0J250000D01*
G01*
G37*
G36*
G01*
X117000000Y-96100000D02*
X117000000Y-93900000D01*
G75*
G02*
X117250000Y-93650000I250000J0D01*
G01*
X117750000Y-93650000D01*
G75*
G02*
X118000000Y-93900000I0J-250000D01*
G01*
X118000000Y-96100000D01*
G75*
G02*
X117750000Y-96350000I-250000J0D01*
G01*
X117250000Y-96350000D01*
G75*
G02*
X117000000Y-96100000I0J250000D01*
G01*
G37*
%TD*%
%TO.C,J3*%
G36*
G01*
X129600000Y-88200000D02*
X127400000Y-88200000D01*
G75*
G02*
X127150000Y-87950000I0J250000D01*
G01*
X127150000Y-87450000D01*
G75*
G02*
X127400000Y-87200000I250000J0D01*
G01*
X129600000Y-87200000D01*
G75*
G02*
X129850000Y-87450000I0J-250000D01*
G01*
X129850000Y-87950000D01*
G75*
G02*
X129600000Y-88200000I-250000J0D01*
G01*
G37*
G36*
G01*
X130200000Y-83600000D02*
X130200000Y-81400000D01*
G75*
G02*
X130450000Y-81150000I250000J0D01*
G01*
X130950000Y-81150000D01*
G75*
G02*
X131200000Y-81400000I0J-250000D01*
G01*
X131200000Y-83600000D01*
G75*
G02*
X130950000Y-83850000I-250000J0D01*
G01*
X130450000Y-83850000D01*
G75*
G02*
X130200000Y-83600000I0J250000D01*
G01*
G37*
G36*
G01*
X117000000Y-83600000D02*
X117000000Y-81400000D01*
G75*
G02*
X117250000Y-81150000I250000J0D01*
G01*
X117750000Y-81150000D01*
G75*
G02*
X118000000Y-81400000I0J-250000D01*
G01*
X118000000Y-83600000D01*
G75*
G02*
X117750000Y-83850000I-250000J0D01*
G01*
X117250000Y-83850000D01*
G75*
G02*
X117000000Y-83600000I0J250000D01*
G01*
G37*
%TD*%
%TO.C,J2*%
G36*
G01*
X129600000Y-75700000D02*
X127400000Y-75700000D01*
G75*
G02*
X127150000Y-75450000I0J250000D01*
G01*
X127150000Y-74950000D01*
G75*
G02*
X127400000Y-74700000I250000J0D01*
G01*
X129600000Y-74700000D01*
G75*
G02*
X129850000Y-74950000I0J-250000D01*
G01*
X129850000Y-75450000D01*
G75*
G02*
X129600000Y-75700000I-250000J0D01*
G01*
G37*
G36*
G01*
X130200000Y-71100000D02*
X130200000Y-68900000D01*
G75*
G02*
X130450000Y-68650000I250000J0D01*
G01*
X130950000Y-68650000D01*
G75*
G02*
X131200000Y-68900000I0J-250000D01*
G01*
X131200000Y-71100000D01*
G75*
G02*
X130950000Y-71350000I-250000J0D01*
G01*
X130450000Y-71350000D01*
G75*
G02*
X130200000Y-71100000I0J250000D01*
G01*
G37*
G36*
G01*
X117000000Y-71100000D02*
X117000000Y-68900000D01*
G75*
G02*
X117250000Y-68650000I250000J0D01*
G01*
X117750000Y-68650000D01*
G75*
G02*
X118000000Y-68900000I0J-250000D01*
G01*
X118000000Y-71100000D01*
G75*
G02*
X117750000Y-71350000I-250000J0D01*
G01*
X117250000Y-71350000D01*
G75*
G02*
X117000000Y-71100000I0J250000D01*
G01*
G37*
%TD*%
%TO.C,J1*%
G36*
G01*
X129600000Y-63200000D02*
X127400000Y-63200000D01*
G75*
G02*
X127150000Y-62950000I0J250000D01*
G01*
X127150000Y-62450000D01*
G75*
G02*
X127400000Y-62200000I250000J0D01*
G01*
X129600000Y-62200000D01*
G75*
G02*
X129850000Y-62450000I0J-250000D01*
G01*
X129850000Y-62950000D01*
G75*
G02*
X129600000Y-63200000I-250000J0D01*
G01*
G37*
G36*
G01*
X130200000Y-58600000D02*
X130200000Y-56400000D01*
G75*
G02*
X130450000Y-56150000I250000J0D01*
G01*
X130950000Y-56150000D01*
G75*
G02*
X131200000Y-56400000I0J-250000D01*
G01*
X131200000Y-58600000D01*
G75*
G02*
X130950000Y-58850000I-250000J0D01*
G01*
X130450000Y-58850000D01*
G75*
G02*
X130200000Y-58600000I0J250000D01*
G01*
G37*
G36*
G01*
X117000000Y-58600000D02*
X117000000Y-56400000D01*
G75*
G02*
X117250000Y-56150000I250000J0D01*
G01*
X117750000Y-56150000D01*
G75*
G02*
X118000000Y-56400000I0J-250000D01*
G01*
X118000000Y-58600000D01*
G75*
G02*
X117750000Y-58850000I-250000J0D01*
G01*
X117250000Y-58850000D01*
G75*
G02*
X117000000Y-58600000I0J250000D01*
G01*
G37*
%TD*%
D19*
%TO.C,D5*%
X143000000Y-73350000D03*
X143000000Y-76650000D03*
%TD*%
D20*
%TO.C,D4*%
X123550000Y-106100000D03*
X120250000Y-106100000D03*
%TD*%
D19*
%TO.C,D3*%
X136500000Y-86107000D03*
X136500000Y-89407000D03*
%TD*%
%TO.C,D2*%
X136500000Y-79631000D03*
X136500000Y-82931000D03*
%TD*%
%TO.C,D1*%
X137500000Y-73350000D03*
X137500000Y-76650000D03*
%TD*%
%TO.C,C2*%
G36*
G01*
X136262500Y-122087500D02*
X136737500Y-122087500D01*
G75*
G02*
X136975000Y-122325000I0J-237500D01*
G01*
X136975000Y-122925000D01*
G75*
G02*
X136737500Y-123162500I-237500J0D01*
G01*
X136262500Y-123162500D01*
G75*
G02*
X136025000Y-122925000I0J237500D01*
G01*
X136025000Y-122325000D01*
G75*
G02*
X136262500Y-122087500I237500J0D01*
G01*
G37*
G36*
G01*
X136262500Y-120362500D02*
X136737500Y-120362500D01*
G75*
G02*
X136975000Y-120600000I0J-237500D01*
G01*
X136975000Y-121200000D01*
G75*
G02*
X136737500Y-121437500I-237500J0D01*
G01*
X136262500Y-121437500D01*
G75*
G02*
X136025000Y-121200000I0J237500D01*
G01*
X136025000Y-120600000D01*
G75*
G02*
X136262500Y-120362500I237500J0D01*
G01*
G37*
%TD*%
%TO.C,C1*%
G36*
G01*
X142525000Y-80487500D02*
X143475000Y-80487500D01*
G75*
G02*
X143725000Y-80737500I0J-250000D01*
G01*
X143725000Y-81412500D01*
G75*
G02*
X143475000Y-81662500I-250000J0D01*
G01*
X142525000Y-81662500D01*
G75*
G02*
X142275000Y-81412500I0J250000D01*
G01*
X142275000Y-80737500D01*
G75*
G02*
X142525000Y-80487500I250000J0D01*
G01*
G37*
G36*
G01*
X142525000Y-78412500D02*
X143475000Y-78412500D01*
G75*
G02*
X143725000Y-78662500I0J-250000D01*
G01*
X143725000Y-79337500D01*
G75*
G02*
X143475000Y-79587500I-250000J0D01*
G01*
X142525000Y-79587500D01*
G75*
G02*
X142275000Y-79337500I0J250000D01*
G01*
X142275000Y-78662500D01*
G75*
G02*
X142525000Y-78412500I250000J0D01*
G01*
G37*
%TD*%
M02*
